<svg width="32" height="32" viewBox="0 0 32 32" fill="none" xmlns="http://www.w3.org/2000/svg">
<path d="M4.73746 25.9873L11.4625 7.47485C11.52 7.31643 11.6167 7.17514 11.7435 7.0641C11.8703 6.95306 12.0231 6.87587 12.1877 6.8397C12.3524 6.80353 12.5235 6.80956 12.6851 6.85723C12.8468 6.9049 12.9938 6.99265 13.1125 7.11235L24.8875 18.8873C25.0072 19.006 25.0949 19.153 25.1426 19.3147C25.1902 19.4763 25.1963 19.6474 25.1601 19.8121C25.1239 19.9767 25.0467 20.1295 24.9357 20.2563C24.8247 20.3831 24.6834 20.4798 24.525 20.5373L6.01246 27.2623C5.83435 27.3304 5.64035 27.3455 5.45387 27.3057C5.2674 27.2659 5.09642 27.173 4.9616 27.0382C4.82677 26.9034 4.73386 26.7324 4.69409 26.5459C4.65431 26.3595 4.66938 26.1654 4.73746 25.9873V25.9873Z" stroke="white" stroke-width="2" stroke-linecap="round" stroke-linejoin="round"/>
<path d="M21 9C21 9 21 6 24 6C27 6 27 3 27 3" stroke="white" stroke-width="2" stroke-linecap="round" stroke-linejoin="round"/>
<path d="M12.8002 24.7992L7.2002 19.1992" stroke="white" stroke-width="2" stroke-linecap="round" stroke-linejoin="round"/>
<path d="M18 2V5" stroke="white" stroke-width="2" stroke-linecap="round" stroke-linejoin="round"/>
<path d="M27 14L29 16" stroke="white" stroke-width="2" stroke-linecap="round" stroke-linejoin="round"/>
<path d="M27 10L30 9" stroke="white" stroke-width="2" stroke-linecap="round" stroke-linejoin="round"/>
<path d="M9.6001 12.5996L19.4001 22.3996" stroke="white" stroke-width="2" stroke-linecap="round" stroke-linejoin="round"/>
</svg>
