<svg width="45" height="46" viewBox="0 0 45 46" fill="none" xmlns="http://www.w3.org/2000/svg">
<path fill-rule="evenodd" clip-rule="evenodd" d="M13.9383 2.58417C16.1285 2.48334 16.8268 2.46094 22.406 2.46094C27.9852 2.46094 28.6835 2.48521 30.8718 2.58417C33.0602 2.68313 34.5539 3.0323 35.861 3.5383C37.2296 4.05552 38.4713 4.86401 39.4982 5.90963C40.5439 6.93472 41.3505 8.17453 41.8658 9.54505C42.3737 10.8521 42.721 12.3458 42.8218 14.5304C42.9227 16.7244 42.9451 17.4227 42.9451 23C42.9451 28.5792 42.9208 29.2775 42.8218 31.4677C42.7229 33.6523 42.3737 35.1461 41.8658 36.4531C41.3505 37.8238 40.5425 39.0657 39.4982 40.0922C38.4713 41.1379 37.2296 41.9445 35.861 42.4598C34.5539 42.9677 33.0602 43.315 30.8756 43.4158C28.6835 43.5167 27.9852 43.5391 22.406 43.5391C16.8268 43.5391 16.1285 43.5148 13.9383 43.4158C11.7537 43.3169 10.26 42.9677 8.95292 42.4598C7.58226 41.9444 6.34039 41.1365 5.31377 40.0922C4.26886 39.0665 3.46024 37.8253 2.94431 36.455C2.4383 35.1479 2.09101 33.6542 1.99018 31.4696C1.88935 29.2756 1.86694 28.5773 1.86694 23C1.86694 17.4208 1.89122 16.7225 1.99018 14.5342C2.08914 12.3458 2.4383 10.8521 2.94431 9.54505C3.461 8.17468 4.27024 6.93344 5.31564 5.90777C6.3408 4.86308 7.58142 4.05448 8.95105 3.5383C10.2581 3.0323 11.7518 2.685 13.9364 2.58417H13.9383ZM30.7057 6.2812C28.5397 6.18224 27.8899 6.1617 22.406 6.1617C16.9221 6.1617 16.2723 6.18224 14.1064 6.2812C12.1029 6.3727 11.0162 6.70692 10.2917 6.98887C9.33383 7.3623 8.64857 7.80483 7.9297 8.5237C7.24826 9.18664 6.72383 9.9937 6.39487 10.8857C6.11293 11.6102 5.7787 12.6969 5.68721 14.7004C5.58825 16.8663 5.56771 17.5161 5.56771 23C5.56771 28.4839 5.58825 29.1337 5.68721 31.2996C5.7787 33.3031 6.11293 34.3898 6.39487 35.1143C6.7235 36.005 7.24818 36.8135 7.9297 37.4763C8.59255 38.1578 9.40104 38.6825 10.2917 39.0111C11.0162 39.2931 12.1029 39.6273 14.1064 39.7188C16.2723 39.8178 16.9202 39.8383 22.406 39.8383C27.8918 39.8383 28.5397 39.8178 30.7057 39.7188C32.7091 39.6273 33.7959 39.2931 34.5203 39.0111C35.4782 38.6377 36.1634 38.1952 36.8823 37.4763C37.5638 36.8135 38.0885 36.005 38.4171 35.1143C38.6991 34.3898 39.0333 33.3031 39.1248 31.2996C39.2238 29.1337 39.2443 28.4839 39.2443 23C39.2443 17.5161 39.2238 16.8663 39.1248 14.7004C39.0333 12.6969 38.6991 11.6102 38.4171 10.8857C38.0437 9.92782 37.6012 9.24256 36.8823 8.5237C36.2193 7.84231 35.4123 7.31789 34.5203 6.98887C33.7959 6.70692 32.7091 6.3727 30.7057 6.2812ZM19.7826 29.3316C21.2477 29.9415 22.8791 30.0238 24.3982 29.5645C25.9172 29.1052 27.2297 28.1327 28.1114 26.8133C28.9931 25.4938 29.3894 23.9091 29.2325 22.3299C29.0757 20.7507 28.3754 19.2749 27.2514 18.1546C26.5348 17.4385 25.6684 16.8902 24.7145 16.5491C23.7606 16.2081 22.7429 16.0827 21.7347 16.1822C20.7266 16.2816 19.753 16.6033 18.8841 17.1242C18.0152 17.6451 17.2726 18.3521 16.7098 19.1944C16.1469 20.0367 15.7778 20.9933 15.6291 21.9954C15.4803 22.9974 15.5556 24.02 15.8495 24.9895C16.1433 25.959 16.6485 26.8513 17.3286 27.6021C18.0087 28.3529 18.8468 28.9436 19.7826 29.3316ZM14.941 15.535C15.9213 14.5547 17.0851 13.777 18.366 13.2465C19.6468 12.7159 21.0196 12.4429 22.406 12.4429C23.7924 12.4429 25.1652 12.7159 26.446 13.2465C27.7269 13.777 28.8907 14.5547 29.871 15.535C30.8513 16.5153 31.629 17.6791 32.1595 18.96C32.6901 20.2408 32.9631 21.6136 32.9631 23C32.9631 24.3864 32.6901 25.7592 32.1595 27.04C31.629 28.3209 30.8513 29.4847 29.871 30.465C27.8912 32.4449 25.2059 33.5571 22.406 33.5571C19.6061 33.5571 16.9208 32.4449 14.941 30.465C12.9611 28.4852 11.8489 25.7999 11.8489 23C11.8489 20.2001 12.9611 17.5148 14.941 15.535ZM35.3045 14.0151C35.5475 13.7859 35.7419 13.5104 35.8765 13.2047C36.011 12.899 36.0828 12.5695 36.0877 12.2355C36.0925 11.9016 36.0304 11.5701 35.9048 11.2606C35.7793 10.9512 35.5929 10.67 35.3567 10.4339C35.1206 10.1978 34.8395 10.0114 34.53 9.88584C34.2205 9.76029 33.889 9.69811 33.5551 9.70298C33.2212 9.70785 32.8916 9.77967 32.586 9.91418C32.2803 10.0487 32.0047 10.2432 31.7756 10.4861C31.3299 10.9586 31.0859 11.5861 31.0953 12.2355C31.1048 12.885 31.367 13.5051 31.8263 13.9644C32.2855 14.4236 32.9057 14.6858 33.5551 14.6953C34.2045 14.7048 34.8321 14.4608 35.3045 14.0151Z" fill="url(#paint0_radial_701_253)"/>
<path fill-rule="evenodd" clip-rule="evenodd" d="M13.9383 2.58417C16.1285 2.48334 16.8268 2.46094 22.406 2.46094C27.9852 2.46094 28.6835 2.48521 30.8718 2.58417C33.0602 2.68313 34.5539 3.0323 35.861 3.5383C37.2296 4.05552 38.4713 4.86401 39.4982 5.90963C40.5439 6.93472 41.3505 8.17453 41.8658 9.54505C42.3737 10.8521 42.721 12.3458 42.8218 14.5304C42.9227 16.7244 42.9451 17.4227 42.9451 23C42.9451 28.5792 42.9208 29.2775 42.8218 31.4677C42.7229 33.6523 42.3737 35.1461 41.8658 36.4531C41.3505 37.8238 40.5425 39.0657 39.4982 40.0922C38.4713 41.1379 37.2296 41.9445 35.861 42.4598C34.5539 42.9677 33.0602 43.315 30.8756 43.4158C28.6835 43.5167 27.9852 43.5391 22.406 43.5391C16.8268 43.5391 16.1285 43.5148 13.9383 43.4158C11.7537 43.3169 10.26 42.9677 8.95292 42.4598C7.58226 41.9444 6.34039 41.1365 5.31377 40.0922C4.26886 39.0665 3.46024 37.8253 2.94431 36.455C2.4383 35.1479 2.09101 33.6542 1.99018 31.4696C1.88935 29.2756 1.86694 28.5773 1.86694 23C1.86694 17.4208 1.89122 16.7225 1.99018 14.5342C2.08914 12.3458 2.4383 10.8521 2.94431 9.54505C3.461 8.17468 4.27024 6.93344 5.31564 5.90777C6.3408 4.86308 7.58142 4.05448 8.95105 3.5383C10.2581 3.0323 11.7518 2.685 13.9364 2.58417H13.9383ZM30.7057 6.2812C28.5397 6.18224 27.8899 6.1617 22.406 6.1617C16.9221 6.1617 16.2723 6.18224 14.1064 6.2812C12.1029 6.3727 11.0162 6.70692 10.2917 6.98887C9.33383 7.3623 8.64857 7.80483 7.9297 8.5237C7.24826 9.18664 6.72383 9.9937 6.39487 10.8857C6.11293 11.6102 5.7787 12.6969 5.68721 14.7004C5.58825 16.8663 5.56771 17.5161 5.56771 23C5.56771 28.4839 5.58825 29.1337 5.68721 31.2996C5.7787 33.3031 6.11293 34.3898 6.39487 35.1143C6.7235 36.005 7.24818 36.8135 7.9297 37.4763C8.59255 38.1578 9.40104 38.6825 10.2917 39.0111C11.0162 39.2931 12.1029 39.6273 14.1064 39.7188C16.2723 39.8178 16.9202 39.8383 22.406 39.8383C27.8918 39.8383 28.5397 39.8178 30.7057 39.7188C32.7091 39.6273 33.7959 39.2931 34.5203 39.0111C35.4782 38.6377 36.1634 38.1952 36.8823 37.4763C37.5638 36.8135 38.0885 36.005 38.4171 35.1143C38.6991 34.3898 39.0333 33.3031 39.1248 31.2996C39.2238 29.1337 39.2443 28.4839 39.2443 23C39.2443 17.5161 39.2238 16.8663 39.1248 14.7004C39.0333 12.6969 38.6991 11.6102 38.4171 10.8857C38.0437 9.92782 37.6012 9.24256 36.8823 8.5237C36.2193 7.84231 35.4123 7.31789 34.5203 6.98887C33.7959 6.70692 32.7091 6.3727 30.7057 6.2812ZM19.7826 29.3316C21.2477 29.9415 22.8791 30.0238 24.3982 29.5645C25.9172 29.1052 27.2297 28.1327 28.1114 26.8133C28.9931 25.4938 29.3894 23.9091 29.2325 22.3299C29.0757 20.7507 28.3754 19.2749 27.2514 18.1546C26.5348 17.4385 25.6684 16.8902 24.7145 16.5491C23.7606 16.2081 22.7429 16.0827 21.7347 16.1822C20.7266 16.2816 19.753 16.6033 18.8841 17.1242C18.0152 17.6451 17.2726 18.3521 16.7098 19.1944C16.1469 20.0367 15.7778 20.9933 15.6291 21.9954C15.4803 22.9974 15.5556 24.02 15.8495 24.9895C16.1433 25.959 16.6485 26.8513 17.3286 27.6021C18.0087 28.3529 18.8468 28.9436 19.7826 29.3316ZM14.941 15.535C15.9213 14.5547 17.0851 13.777 18.366 13.2465C19.6468 12.7159 21.0196 12.4429 22.406 12.4429C23.7924 12.4429 25.1652 12.7159 26.446 13.2465C27.7269 13.777 28.8907 14.5547 29.871 15.535C30.8513 16.5153 31.629 17.6791 32.1595 18.96C32.6901 20.2408 32.9631 21.6136 32.9631 23C32.9631 24.3864 32.6901 25.7592 32.1595 27.04C31.629 28.3209 30.8513 29.4847 29.871 30.465C27.8912 32.4449 25.2059 33.5571 22.406 33.5571C19.6061 33.5571 16.9208 32.4449 14.941 30.465C12.9611 28.4852 11.8489 25.7999 11.8489 23C11.8489 20.2001 12.9611 17.5148 14.941 15.535ZM35.3045 14.0151C35.5475 13.7859 35.7419 13.5104 35.8765 13.2047C36.011 12.899 36.0828 12.5695 36.0877 12.2355C36.0925 11.9016 36.0304 11.5701 35.9048 11.2606C35.7793 10.9512 35.5929 10.67 35.3567 10.4339C35.1206 10.1978 34.8395 10.0114 34.53 9.88584C34.2205 9.76029 33.889 9.69811 33.5551 9.70298C33.2212 9.70785 32.8916 9.77967 32.586 9.91418C32.2803 10.0487 32.0047 10.2432 31.7756 10.4861C31.3299 10.9586 31.0859 11.5861 31.0953 12.2355C31.1048 12.885 31.367 13.5051 31.8263 13.9644C32.2855 14.4236 32.9057 14.6858 33.5551 14.6953C34.2045 14.7048 34.8321 14.4608 35.3045 14.0151Z" fill="url(#paint1_radial_701_253)"/>
<defs>
<radialGradient id="paint0_radial_701_253" cx="0" cy="0" r="1" gradientUnits="userSpaceOnUse" gradientTransform="translate(12.7784 46.7029) rotate(-90) scale(40.7115 37.8649)">
<stop stop-color="#FFDD55"/>
<stop offset="0.1" stop-color="#FFDD55"/>
<stop offset="0.5" stop-color="#FF543E"/>
<stop offset="1" stop-color="#C837AB"/>
</radialGradient>
<radialGradient id="paint1_radial_701_253" cx="0" cy="0" r="1" gradientUnits="userSpaceOnUse" gradientTransform="translate(-5.01386 5.42014) rotate(78.6806) scale(18.1982 75.0137)">
<stop stop-color="#3771C8"/>
<stop offset="0.128" stop-color="#3771C8"/>
<stop offset="1" stop-color="#6600FF" stop-opacity="0"/>
</radialGradient>
</defs>
</svg>
