<svg width="32" height="27" viewBox="0 0 32 27" fill="none" xmlns="http://www.w3.org/2000/svg">
<path d="M29.0645 0.481743C29.0645 0.481743 31.9785 -0.654507 31.7356 2.10496C31.6547 3.24123 30.9262 7.2181 30.3596 11.5197L28.4169 24.2619C28.4169 24.2619 28.2551 26.1286 26.798 26.4533C25.341 26.7779 23.1556 25.317 22.7508 24.9924C22.427 24.7489 16.6801 21.0966 14.6564 19.3111C14.0898 18.8241 13.4423 17.8502 14.7374 16.7139L23.2365 8.59788C24.2079 7.62393 25.1792 5.35142 21.132 8.1109L9.79983 15.8212C9.79983 15.8212 8.50473 16.6328 6.07645 15.9024L0.815066 14.2791C0.815066 14.2791 -1.12759 13.0617 2.19111 11.8443C10.2855 8.02968 20.2416 4.13395 29.0645 0.481743Z" fill="white"/>
</svg>
