<svg width="38" height="44" viewBox="0 0 38 44" fill="none" xmlns="http://www.w3.org/2000/svg">
<g clip-path="url(#clip0_701_262)">
<path d="M27.9524 16.0211C30.7044 17.9873 34.0757 19.1442 37.7169 19.1442V12.1412C37.0277 12.1414 36.3404 12.0695 35.6662 11.9267V17.439C32.0254 17.439 28.6545 16.2823 25.9019 14.3162V28.6073C25.9019 35.7565 20.1033 41.5516 12.951 41.5516C10.2823 41.5516 7.80172 40.7452 5.74121 39.3622C8.093 41.7657 11.3727 43.2566 15.001 43.2566C22.154 43.2566 27.9527 37.4615 27.9527 30.312V16.0211H27.9524ZM30.4822 8.95596C29.0757 7.42026 28.1522 5.43563 27.9524 3.24149V2.34082H26.0092C26.4983 5.12947 28.1668 7.51191 30.482 8.95596H30.4822ZM10.265 33.8762C9.47928 32.8466 9.05453 31.5868 9.05644 30.2915C9.05644 27.0218 11.7087 24.3706 14.9809 24.3706C15.5906 24.3703 16.1967 24.4639 16.7779 24.6481V17.4885C16.0987 17.3956 15.4133 17.3559 14.7282 17.3705V22.9431C14.1467 22.7588 13.5402 22.6653 12.9302 22.6658C9.65816 22.6658 7.0061 25.3167 7.0061 28.5868C7.0061 30.8991 8.33169 32.901 10.265 33.8762Z" fill="#FF004F"/>
<path d="M25.9026 14.3161C28.6553 16.2821 32.0259 17.4389 35.6669 17.4389V11.9266C33.6345 11.4938 31.8354 10.4324 30.4827 8.95596C28.1673 7.51176 26.499 5.12932 26.0098 2.34082H20.9056V30.3117C20.894 33.5726 18.2464 36.2129 14.9812 36.2129C13.0573 36.2129 11.3479 35.2963 10.2654 33.8761C8.33234 32.901 7.00661 30.899 7.00661 28.587C7.00661 25.3171 9.65867 22.666 12.9307 22.666C13.5576 22.666 14.1619 22.7635 14.7287 22.9432V17.3707C7.70189 17.5158 2.05078 23.2543 2.05078 30.3119C2.05078 33.835 3.458 37.0288 5.74201 39.3625C7.80252 40.7452 10.2829 41.5519 12.9518 41.5519C20.1043 41.5519 25.9027 35.7564 25.9027 28.6073V14.3162H25.9026V14.3161Z" fill="black"/>
<path d="M35.6666 11.9262V10.436C33.8339 10.4388 32.0373 9.9258 30.4824 8.95571C31.8588 10.4618 33.6713 11.5004 35.6666 11.9265V11.9262ZM26.0094 2.34043C25.9628 2.07399 25.927 1.80576 25.9021 1.53641V0.635742H18.8544V28.6069C18.8432 31.8675 16.1956 34.5078 12.9303 34.5078C12.0046 34.5091 11.0916 34.2928 10.265 33.8761C11.3474 35.296 13.0569 36.2125 14.9808 36.2125C18.2458 36.2125 20.8937 33.5725 20.9052 30.3116V2.34058H26.0094V2.34043ZM14.7287 17.3703V15.7836C14.1398 15.7031 13.546 15.6628 12.9517 15.6631C5.79845 15.6631 0 21.4584 0 28.6069C0 33.0888 2.27886 37.0386 5.74187 39.3619C3.45785 37.0284 2.05064 33.8344 2.05064 30.3115C2.05064 23.254 7.7016 17.5155 14.7287 17.3704V17.3703Z" fill="#00F2EA"/>
</g>
<defs>
<clipPath id="clip0_701_262">
<rect width="37.7183" height="42.7277" fill="white" transform="translate(0 0.635742)"/>
</clipPath>
</defs>
</svg>
