<svg width="48" height="36" viewBox="0 0 48 36" fill="none" xmlns="http://www.w3.org/2000/svg">
<path d="M47.2833 17.8534C47.2833 17.7382 47.2833 17.6072 47.2781 17.4553C47.2728 17.0311 47.2624 16.5544 47.2519 16.0464C47.21 14.585 47.1367 13.1289 47.0214 11.7566C46.8643 9.86575 46.6338 8.28917 46.3196 7.10542C45.9879 5.87008 45.3378 4.74342 44.4343 3.83806C43.5308 2.93269 42.4055 2.28033 41.1708 1.94618C39.6885 1.54811 36.7867 1.30193 32.7013 1.15003C30.758 1.0767 28.6786 1.02956 26.5992 1.00337C25.8711 0.992897 25.1955 0.98766 24.5879 0.982422H23.048C22.4404 0.98766 21.7647 0.992897 21.0366 1.00337C18.9572 1.02956 16.8778 1.0767 14.9346 1.15003C10.8491 1.30717 7.94213 1.55334 6.46506 1.94618C5.22999 2.27951 4.10422 2.9316 3.20057 3.83709C2.29691 4.74258 1.64712 5.86968 1.3163 7.10542C0.99679 8.28917 0.771564 9.86575 0.61443 11.7566C0.499198 13.1289 0.425868 14.585 0.383966 16.0464C0.368252 16.5544 0.363015 17.0311 0.357777 17.4553C0.357777 17.6072 0.352539 17.7382 0.352539 17.8534V18.1467C0.352539 18.262 0.352539 18.3929 0.357777 18.5448C0.363015 18.9691 0.37349 19.4457 0.383966 19.9538C0.425868 21.4151 0.499198 22.8712 0.61443 24.2435C0.771564 26.1344 1.00203 27.711 1.3163 28.8947C1.98674 31.4036 3.95615 33.3835 6.46506 34.054C7.94213 34.452 10.8491 34.6982 14.9346 34.8501C16.8778 34.9234 18.9572 34.9706 21.0366 34.9968C21.7647 35.0072 22.4404 35.0125 23.048 35.0177H24.5879C25.1955 35.0125 25.8711 35.0072 26.5992 34.9968C28.6786 34.9706 30.758 34.9234 32.7013 34.8501C36.7867 34.693 39.6937 34.4468 41.1708 34.054C43.6797 33.3835 45.6491 31.4089 46.3196 28.8947C46.6391 27.711 46.8643 26.1344 47.0214 24.2435C47.1367 22.8712 47.21 21.4151 47.2519 19.9538C47.2676 19.4457 47.2728 18.9691 47.2781 18.5448C47.2781 18.3929 47.2833 18.262 47.2833 18.1467V17.8534ZM43.5121 18.1258C43.5121 18.2358 43.5121 18.3562 43.5069 18.4977C43.5016 18.9062 43.4911 19.3567 43.4807 19.8438C43.444 21.237 43.3707 22.6303 43.2607 23.924C43.1193 25.6106 42.9202 26.9934 42.674 27.9205C42.3493 29.1304 41.396 30.0889 40.1913 30.4084C39.0914 30.7018 36.3206 30.9375 32.5546 31.0789C30.648 31.1522 28.5948 31.1993 26.5468 31.2255C25.8292 31.236 25.164 31.2412 24.5669 31.2412H23.0689L21.089 31.2255C19.041 31.1993 16.9931 31.1522 15.0813 31.0789C11.3153 30.9322 8.53924 30.7018 7.44453 30.4084C6.23984 30.0837 5.28656 29.1304 4.96181 27.9205C4.71563 26.9934 4.5166 25.6106 4.37518 23.924C4.26518 22.6303 4.19709 21.237 4.15519 19.8438C4.13948 19.3567 4.13424 18.901 4.129 18.4977C4.129 18.3562 4.12376 18.2305 4.12376 18.1258V17.8744C4.12376 17.7644 4.12376 17.6439 4.129 17.5025C4.13424 17.0939 4.14471 16.6435 4.15519 16.1564C4.19185 14.7631 4.26518 13.3698 4.37518 12.0761C4.5166 10.3895 4.71563 9.00675 4.96181 8.07965C5.28656 6.86972 6.23984 5.9112 7.44453 5.59169C8.54447 5.29838 11.3153 5.06267 15.0813 4.92125C16.9878 4.84792 19.041 4.80078 21.089 4.7746C21.8066 4.76412 22.4718 4.75888 23.0689 4.75888H24.5669L26.5468 4.7746C28.5948 4.80078 30.6428 4.84792 32.5546 4.92125C36.3206 5.06791 39.0966 5.29838 40.1913 5.59169C41.396 5.91644 42.3493 6.86972 42.674 8.07965C42.9202 9.00675 43.1193 10.3895 43.2607 12.0761C43.3707 13.3698 43.4388 14.7631 43.4807 16.1564C43.4964 16.6435 43.5016 17.0992 43.5069 17.5025C43.5069 17.6439 43.5121 17.7696 43.5121 17.8744V18.1258ZM19.1563 25.0187L31.308 17.9477L19.1563 10.9814V25.0187Z" fill="#B12424"/>
</svg>
