<svg width="286" height="57" viewBox="0 0 286 57" fill="none" xmlns="http://www.w3.org/2000/svg">
<g opacity="0.3">
<g opacity="0.3">
<path opacity="0.3" d="M263.07 37.2031C262.623 37.2031 262.316 37.3986 262.064 37.6221L261.338 38.3482C261.282 38.4041 261.227 38.46 261.227 38.5438C261.227 38.6275 261.282 38.6834 261.338 38.7393L262.064 39.4654C262.316 39.7168 262.623 39.8844 263.07 39.8844C263.824 39.8844 264.383 39.2979 264.383 38.5438C264.383 37.7896 263.824 37.2031 263.07 37.2031ZM263.07 37.7617C263.489 37.7617 263.824 38.0969 263.824 38.5438C263.824 38.9906 263.489 39.3258 263.07 39.3258C262.819 39.3258 262.651 39.242 262.455 39.0465L261.925 38.5158L262.455 37.9852C262.651 37.8176 262.819 37.7617 263.07 37.7617Z" fill="#94BB1E"/>
<path opacity="0.3" d="M258.656 37.2012C257.93 37.2012 257.344 37.7877 257.344 38.5418C257.344 39.2959 257.902 39.8824 258.656 39.8824C259.103 39.8824 259.411 39.6869 259.662 39.4635L260.388 38.7373C260.444 38.6814 260.5 38.6256 260.5 38.5418C260.5 38.458 260.472 38.4022 260.388 38.3463L259.662 37.6201C259.411 37.3688 259.103 37.2012 258.656 37.2012ZM258.656 37.7598C258.908 37.7598 259.075 37.8436 259.271 38.0391L259.802 38.5697L259.271 39.1004C259.075 39.2959 258.908 39.3797 258.656 39.3797C258.237 39.3797 257.902 39.0166 257.902 38.5977C257.902 38.0949 258.237 37.7598 258.656 37.7598Z" fill="#94BB1E"/>
<path opacity="0.3" d="M260.864 38.9062C260.78 38.9062 260.724 38.9621 260.669 39.018L259.942 39.7441C259.691 39.9955 259.523 40.3027 259.523 40.7496C259.523 41.4758 260.11 42.0623 260.864 42.0623C261.618 42.0623 262.205 41.5037 262.205 40.7496C262.205 40.3027 262.009 39.9955 261.786 39.7441L261.06 39.018C261.004 38.9621 260.948 38.9062 260.864 38.9062ZM260.864 39.6045L261.395 40.1352C261.59 40.3307 261.674 40.4982 261.674 40.7496C261.674 41.1686 261.339 41.5037 260.892 41.5037C260.445 41.5037 260.11 41.1686 260.11 40.7496C260.11 40.4982 260.194 40.3307 260.361 40.1352L260.864 39.6045Z" fill="#94BB1E"/>
<path opacity="0.3" d="M260.864 35.0234C260.11 35.0234 259.523 35.582 259.523 36.3361C259.523 36.783 259.719 37.0902 259.942 37.3416L260.669 38.0678C260.724 38.1236 260.78 38.1795 260.864 38.1795C260.948 38.1795 261.004 38.1236 261.06 38.0678L261.786 37.3416C262.037 37.0902 262.205 36.783 262.205 36.3361C262.205 35.582 261.618 35.0234 260.864 35.0234ZM260.864 35.582C261.311 35.582 261.646 35.9172 261.646 36.3361C261.646 36.5875 261.562 36.7551 261.395 36.9506L260.864 37.4812L260.333 36.9506C260.138 36.7551 260.054 36.5875 260.054 36.3361C260.082 35.9172 260.417 35.582 260.864 35.582Z" fill="#94BB1E"/>
</g>
</g>
<path d="M278.542 45.8049V47.2014H281.475V56.4461H283.039V47.2014H285.972V45.8049H278.542ZM272.733 51.5584H276.923V50.2178H272.733V47.2014H277.984V45.8049H271.141V56.4461H278.123V55.0496H272.705V51.5584H272.733ZM269.214 55.1893C268.879 55.1893 268.795 54.9937 268.655 54.6586C268.181 53.3459 268.208 52.7314 267.873 51.9773C267.734 51.6422 267.371 51.0277 266.616 50.7764C267.147 50.525 267.426 50.0502 267.566 49.6033C267.845 48.8213 267.929 47.6482 268.236 47.2852C268.348 47.1455 268.572 47.0059 268.711 47.0059C268.767 47.0059 268.823 47.0059 269.018 47.0338L269.186 47.0617V45.777L269.074 45.749C268.963 45.7211 268.767 45.6932 268.544 45.6932C268.041 45.6932 267.259 45.8607 266.84 46.8104C266.477 47.6203 266.421 48.9051 266.002 49.5754C265.639 50.1619 265.08 50.2736 264.494 50.2736H263.181V45.8049H261.617V56.4461H263.181V51.5584H264.466C265.164 51.5584 265.862 51.5863 266.281 52.3125C266.449 52.5918 266.533 53.0107 266.728 53.7369C266.896 54.491 267.063 55.1613 267.343 55.692C267.734 56.3902 268.292 56.6137 268.823 56.6137H268.851C269.158 56.6137 269.354 56.5578 269.577 56.4461L269.633 56.4182V55.1334L269.437 55.1893C269.409 55.1893 269.326 55.1893 269.214 55.1893ZM258.573 50.3574C258.07 50.8322 257.344 50.8322 256.869 50.8322H254.998V47.2014H257.009C257.483 47.2014 258.154 47.2572 258.601 47.6482C258.824 47.8158 259.159 48.2068 259.159 48.933C259.131 49.5754 258.88 50.0781 258.573 50.3574ZM259.662 46.5031C258.824 45.8887 257.819 45.8049 256.981 45.8049H253.406V56.4461H254.998V52.2287H257.037C257.065 52.2287 257.092 52.2287 257.12 52.2287C257.819 52.2287 258.908 52.2287 259.83 51.3908C260.165 51.1115 260.835 50.3295 260.835 48.9609C260.807 47.6482 260.193 46.8941 259.662 46.5031ZM246.535 52.117L247.904 47.8158L249.244 52.117H246.535ZM248.881 45.8049H247.177L243.742 56.4461H245.222L246.144 53.4297H249.663L250.641 56.4461H252.372L252.316 56.2506L248.881 45.8049ZM237.402 53.8766L234.386 45.8049H232.235V56.4461H233.604V47.9834L236.788 56.4461H237.849L240.977 47.9555V56.4461H242.541V45.8049H240.39L237.402 53.8766ZM228.576 50.3574C228.046 50.8322 227.319 50.8322 226.845 50.8322H224.973V47.2014H226.956C227.431 47.2014 228.129 47.2572 228.576 47.6482C228.8 47.8158 229.135 48.2068 229.135 48.933C229.135 49.5754 228.883 50.0781 228.576 50.3574ZM229.638 46.5031C228.828 45.8887 227.794 45.8049 226.956 45.8049H223.381V56.4461H224.973V52.2287H227.012C227.04 52.2287 227.068 52.2287 227.068 52.2287C227.794 52.2287 228.856 52.2287 229.777 51.3908C230.112 51.1115 230.783 50.3295 230.783 48.9609C230.811 47.6482 230.196 46.8941 229.638 46.5031ZM216.399 51.5584H220.56V50.2178H216.399V47.2014H221.65V45.8049H214.807V56.4461H221.789V55.0496H216.371V51.5584H216.399ZM204.892 56.4461H206.484V47.2014H210.869V56.4461H212.461V45.8049H204.892V56.4461ZM200.06 51.8377L197.211 45.8049H195.535L199.25 53.6252C199.138 53.9883 198.915 54.5189 198.608 54.7982C198.384 54.9937 198.021 55.1893 197.518 55.1893C197.323 55.1893 197.183 55.1613 196.988 55.0775L196.792 54.9937V56.3902L196.876 56.4182C197.044 56.474 197.295 56.5299 197.602 56.5299C198.189 56.5299 198.859 56.3064 199.362 55.8596C200.06 55.2451 200.367 54.3793 200.647 53.6252L203.886 45.8049H202.434L200.06 51.8377ZM193.86 52.7873C193.692 53.6811 193.217 54.2396 193.05 54.4631C192.575 54.9379 192.156 55.1893 191.43 55.1893C190.229 55.1893 189.531 54.4352 189.14 53.6252C188.804 52.899 188.665 51.8936 188.665 50.9998C188.665 50.2736 188.748 49.1564 189.223 48.3465C189.81 47.3131 190.592 47.0338 191.402 47.0338C192.24 47.0338 192.798 47.3131 193.273 48.0393C193.552 48.4861 193.72 48.9609 193.804 49.324L193.832 49.4637L193.971 49.4357L195.34 49.1844L195.312 49.0447C195.172 48.0393 194.698 47.1455 194.083 46.5869C193.217 45.777 192.296 45.6094 191.43 45.6094C190.732 45.6094 189.307 45.7211 188.19 47.0338C187.855 47.4248 186.961 48.6258 186.989 50.916C186.989 52.2846 187.324 53.6811 187.994 54.7145C189.056 56.3344 190.48 56.5578 191.43 56.5578H191.458C192.24 56.5578 193.189 56.4182 194.083 55.4406C194.698 54.7982 195.116 53.9324 195.284 53.0666L195.312 52.927L193.86 52.6197V52.7873Z" fill="#94BB1E"/>
<path d="M43.3195 16.4512C39.9121 16.4512 37.6219 17.8477 35.7506 19.691L29.0195 26.6176L35.7506 33.5441C37.6219 35.3875 39.9121 36.784 43.3195 36.784C48.9334 36.784 53.2346 32.2314 53.2346 26.6176C53.2346 21.0037 48.9613 16.4512 43.3195 16.4512ZM43.3195 20.8082C46.4197 20.8082 48.8775 23.3777 48.8775 26.6176C48.8775 29.8854 46.4477 32.427 43.3195 32.427C41.532 32.427 40.2473 31.8684 38.8229 30.4439L34.9406 26.5896L38.7949 22.7633C40.2473 21.3668 41.532 20.8082 43.3195 20.8082Z" fill="#004819"/>
<path d="M9.91504 16.4512C4.27324 16.4512 0 21.0037 0 26.6176C0 32.2314 4.27324 36.784 9.88711 36.784C13.2945 36.784 15.5848 35.3875 17.4561 33.5441L24.1871 26.6176L17.484 19.691C15.6127 17.8477 13.2945 16.4512 9.91504 16.4512ZM9.91504 20.8082C11.7025 20.8082 12.9873 21.3668 14.4396 22.7912L18.3219 26.6455L14.4396 30.4439C12.9873 31.8963 11.7025 32.427 9.91504 32.427C6.81484 32.427 4.35703 29.8854 4.35703 26.6176C4.35703 23.3498 6.78691 20.8082 9.91504 20.8082Z" fill="#94BB1E"/>
<path d="M26.6176 29.0195C26.0311 29.0195 19.691 35.7506 19.691 35.7506C17.8477 37.6219 16.4512 39.9121 16.4512 43.3195C16.4512 48.9334 21.0037 53.2066 26.6176 53.2066C32.2314 53.2066 36.784 48.9334 36.784 43.3195C36.784 39.9121 35.3875 37.6219 33.5441 35.7506L26.6176 29.0195ZM26.6176 34.9406L30.4439 38.7949C31.8684 40.2752 32.427 41.532 32.427 43.3195C32.427 46.4756 29.9133 48.8775 26.6176 48.8775C23.2939 48.8775 20.8082 46.5035 20.8082 43.3195C20.8082 41.532 21.3668 40.2473 22.7633 38.7949L26.6176 34.9406Z" fill="#41884C"/>
<path d="M26.6176 0C21.0037 0 16.4512 4.27324 16.4512 9.88711C16.4512 13.2945 17.8477 15.5848 19.691 17.4561L26.6176 24.1871L33.5441 17.4561C35.3875 15.5848 36.784 13.2945 36.784 9.88711C36.784 4.27324 32.2314 0 26.6176 0ZM26.6176 4.35703C29.8854 4.35703 32.427 6.78691 32.427 9.91504C32.427 11.7025 31.8684 12.9873 30.4439 14.4396L26.6176 18.2939L22.7912 14.4396C21.3668 12.9873 20.8082 11.7025 20.8082 9.91504C20.8082 6.73105 23.2939 4.35703 26.6176 4.35703Z" fill="#B5D054"/>
<path d="M111.971 35.0242C109.82 35.0242 108.479 33.3205 108.479 30.4717V26.0588C108.479 23.6289 109.848 21.8135 111.971 21.8135C114.261 21.8135 115.685 23.6848 115.685 28.349C115.685 31.7844 114.931 35.0242 111.971 35.0242ZM114.875 17.8475C114.512 17.7916 114.177 17.7637 113.842 17.7637C111.747 17.8754 109.848 18.5736 108.452 19.4115V18.7691C108.452 18.5178 108.563 18.043 107.949 18.043H104.513C103.536 18.1268 102.782 18.825 102.754 19.6908V23.3217V41.1408C102.754 44.241 104.96 46.1682 107.67 46.1682H107.893C108.172 46.1682 108.452 46.0564 108.452 45.5537V37.8172C109.625 38.5154 111.105 39.074 113.088 39.102C113.814 39.102 114.456 39.0461 115.071 38.9344C118.646 38.4037 121.886 35.1918 121.886 28.2094C121.914 22.4279 119.456 18.1826 114.875 17.8475Z" fill="#004819"/>
<path d="M256.814 33.292C256.06 34.6047 254.943 35.0236 253.853 35.0236C252.764 35.0236 251.647 34.6047 250.893 33.292C250.418 32.4541 249.971 31.1135 249.971 28.3484C249.971 26.8402 250.055 24.8572 251.005 23.377C251.675 22.2877 252.569 21.785 253.853 21.785C255.138 21.785 256.004 22.2877 256.702 23.377C257.652 24.8572 257.763 26.8123 257.763 28.3484C257.736 31.1135 257.289 32.4262 256.814 33.292ZM253.853 17.791C251.842 17.791 249.133 18.2658 246.759 20.584C245.782 21.5336 243.715 24.0752 243.715 28.3484C243.715 31.6441 245 34.5768 246.899 36.3922C248.295 37.7049 250.586 38.9897 253.825 38.9897C257.065 38.9897 259.355 37.7049 260.752 36.3922C262.679 34.5488 263.964 31.6162 263.964 28.3484C263.964 24.0752 261.869 21.5336 260.92 20.584C258.573 18.2658 255.836 17.791 253.853 17.791Z" fill="#004819"/>
<path d="M218.605 21.7855C219.723 21.7855 220.644 22.3721 221.175 23.0982C221.398 23.4055 221.566 23.8523 221.706 24.3551C221.873 24.8299 222.18 25.165 222.683 25.165H226.873C227.096 25.165 227.264 24.9695 227.236 24.7461C226.873 22.9027 225.979 21.0873 224.666 19.8863C223.158 18.4898 220.868 17.7637 218.55 17.7637C215.952 17.7637 213.634 18.7691 212.07 20.1656C210.506 21.5621 208.83 24.2154 208.83 28.4049C208.83 31.8961 210.031 34.7729 211.819 36.5045C212.88 37.51 214.975 38.9902 218.438 38.9902C221.538 38.9902 223.493 37.8172 224.61 36.8676C225.839 35.7783 226.789 34.1584 227.236 32.315C227.264 32.1754 227.236 31.924 226.901 31.924H222.571C222.069 31.952 221.845 32.2313 221.678 32.6781C221.678 32.6781 221.65 32.734 221.622 32.8178C221.622 32.8457 221.622 32.8457 221.594 32.8736C221.594 32.9016 221.566 32.9295 221.566 32.9574C221.454 33.2088 221.343 33.4322 221.175 33.6557C220.477 34.7449 219.751 34.9963 218.717 34.9963C217.74 34.9963 216.79 34.7449 215.98 33.3764C215.421 32.4268 215.114 31.0303 215.114 28.377C215.114 25.2209 215.589 23.992 215.952 23.3775C216.483 22.4279 217.488 21.7855 218.605 21.7855Z" fill="#004819"/>
<path d="M86.7777 26.1979C86.7777 24.9689 87.2246 23.7959 87.8949 23.0697C88.6211 22.3156 89.7104 21.785 90.9393 21.785C92.5033 21.785 93.425 22.5391 93.9836 23.3211C94.5422 24.1311 94.8215 25.2482 94.7936 26.1979H86.7777ZM90.8555 17.791C89.04 17.791 86.4984 18.0703 84.1244 20.0813C82.5324 21.4498 80.5215 23.9635 80.5215 28.4602C80.5215 32.3145 82.0297 34.7723 83.4541 36.1967C84.9623 37.7049 87.4481 39.0455 90.8275 39.0455C93.5647 39.0455 95.7711 38.3193 97.3631 37.2021C98.4803 36.4201 99.8488 35.0795 100.575 32.901C100.631 32.7334 100.715 32.3703 100.268 32.3703H95.4639C95.1846 32.3703 94.8773 32.7055 94.7936 32.8451C94.626 33.2361 94.3746 33.5992 94.1232 33.8785C93.5647 34.4371 92.615 35.0516 91.1348 35.0516C89.2076 35.0516 88.0904 34.0461 87.476 32.901C87.0012 32.0072 86.7498 30.7783 86.8057 29.6611H100.184C100.715 29.5773 100.91 29.2701 100.938 28.5439C100.938 28.5439 100.938 28.4602 100.938 28.3764C100.882 25.0527 99.793 22.6787 98.592 21.2543C97.1955 19.5506 94.7377 17.791 90.8555 17.791Z" fill="#004819"/>
<path d="M161.992 31.9514C160.707 29.298 159.562 27.7061 158.472 27.5664C158.472 27.5664 159.925 27.4826 160.902 24.8014C161.238 23.8518 162.187 21.6732 162.829 20.3326C163.053 19.8299 163.444 19.2992 163.863 18.7965C163.919 18.7406 163.947 18.6289 163.947 18.5451C163.947 18.3217 163.751 18.1262 163.528 18.0982H159.338C158.193 18.1262 157.635 19.0199 157.271 19.9137C156.657 21.3381 156.406 22.2318 155.512 24.2148C155.093 25.1645 154.311 26.1699 152.607 26.1699H151.378V18.7965C151.378 18.5451 151.49 18.0703 150.876 18.0703H147.161C146.183 18.1541 145.401 18.8803 145.401 19.7461V35.4426C145.401 35.8895 145.429 36.5039 145.625 37.0904C146.044 37.9842 146.854 38.7383 147.887 38.7383H150.513C151.183 38.7383 151.378 38.3752 151.378 37.8725V29.6053H152.44C154.73 29.6053 155.735 32.2307 156.713 34.074C157.607 35.7777 159.171 38.7941 161.936 38.6545H165.231C165.455 38.6266 165.622 38.459 165.622 38.2355C165.622 38.1518 165.595 38.0959 165.567 38.0121C164.785 36.7553 163.053 33.9344 161.992 31.9514Z" fill="#004819"/>
<path d="M76.891 12.3457H60.4684C59.435 12.3457 58.4854 13.2115 58.4854 14.3846C58.4854 14.3846 58.4854 33.265 58.4854 33.3488C58.4854 34.075 58.5691 34.9408 58.9322 35.8066C59.6863 37.4266 61.2504 38.5996 63.1217 38.823H63.8758C64.4064 38.823 64.4902 38.5717 64.4902 37.9852V18.6578C64.574 18.2947 64.9092 17.9875 65.3002 17.9875H72.0312C72.4223 17.9875 72.7574 18.2947 72.8412 18.6578C72.8412 18.6578 72.8133 33.0416 72.8412 33.3209C72.8412 34.0471 72.8971 34.9129 73.2602 35.7787C74.0143 37.3986 75.5783 38.5717 77.4496 38.7951H78.2037C78.7344 38.7951 78.8182 38.5437 78.8182 37.9572V14.3566C78.8461 13.407 78.0082 12.3457 76.891 12.3457Z" fill="#004819"/>
<path d="M245.753 18.4898C245.809 18.2943 245.781 18.043 245.39 18.043H226.174C225.755 18.043 225.727 18.2943 225.783 18.4898C226.37 20.4449 227.822 22.2883 229.889 22.4H231.984C232.43 22.4559 232.794 22.8189 232.794 23.2938V33.8512C232.794 34.6053 232.905 35.108 233.213 35.8062C233.967 37.4262 235.531 38.5992 237.374 38.7947H238.128C238.659 38.7947 238.743 38.5434 238.743 37.9568V23.2938C238.743 22.8469 239.106 22.4559 239.553 22.4H241.647C243.714 22.3162 245.166 20.4729 245.753 18.4898Z" fill="#004819"/>
<path d="M285.749 38.04C284.967 36.7832 283.235 33.9344 282.174 31.9514C280.889 29.298 279.744 27.7061 278.654 27.5385C278.654 27.5385 280.107 27.4547 281.084 24.7734C281.42 23.8518 282.369 21.6453 283.012 20.3047C283.235 19.802 283.626 19.2713 284.045 18.7686C284.101 18.7127 284.129 18.601 284.129 18.5172C284.129 18.2938 283.961 18.0982 283.71 18.0703H279.52C278.375 18.0982 277.817 18.992 277.454 19.8857C276.839 21.3102 276.588 22.2039 275.694 24.1869C275.275 25.1365 274.493 26.142 272.789 26.142H271.588V18.7965C271.588 18.5451 271.7 18.0703 271.086 18.0703H267.371C266.393 18.1541 265.639 18.8803 265.611 19.7461V35.4426C265.611 35.8895 265.639 36.5039 265.835 37.0904C266.254 37.9842 267.064 38.7383 268.125 38.7383H270.75C271.421 38.7383 271.616 38.3752 271.616 37.8725V29.6053H272.678C274.968 29.6053 275.973 32.2307 276.951 34.074C277.845 35.7777 279.409 38.7941 282.174 38.6545H285.469C285.693 38.6266 285.86 38.459 285.86 38.2355C285.804 38.1518 285.777 38.0959 285.749 38.04Z" fill="#004819"/>
<path d="M175.538 35.0242C173.388 35.0242 172.047 33.3205 172.047 30.4717V26.0588C172.047 23.6289 173.415 21.8135 175.538 21.8135C177.828 21.8135 179.253 23.6848 179.253 28.349C179.281 31.7844 178.527 35.0242 175.538 35.0242ZM178.471 17.8475C178.108 17.7916 177.772 17.7637 177.437 17.7637C175.315 17.8754 173.443 18.5736 172.019 19.4115V18.7691C172.019 18.5178 172.131 18.043 171.516 18.043H168.081C167.103 18.1268 166.349 18.825 166.321 19.6908V23.3217V41.1408C166.321 44.241 168.528 46.1682 171.237 46.1682H171.46C171.74 46.1682 172.047 46.0564 172.047 45.5537V37.8172C173.22 38.5154 174.7 39.074 176.683 39.102C177.381 39.102 178.052 39.0461 178.666 38.9344C182.241 38.4037 185.509 35.1918 185.509 28.2094C185.509 22.4279 183.079 18.1826 178.471 17.8475Z" fill="#004819"/>
<path d="M193.273 26.1979C193.273 24.9689 193.72 23.7959 194.39 23.0697C195.116 22.3156 196.178 21.785 197.434 21.785C198.998 21.785 199.92 22.5391 200.479 23.3211C201.037 24.1311 201.317 25.2482 201.289 26.1979H193.273ZM197.351 17.791C195.535 17.791 192.994 18.0703 190.62 20.0813C189.028 21.4498 187.017 23.9635 187.017 28.4602C187.017 32.3145 188.525 34.7723 189.921 36.1967C191.457 37.7049 193.915 39.0455 197.295 39.0455C200.004 39.0455 202.21 38.3193 203.83 37.2021C204.947 36.4201 206.288 35.0795 207.042 32.901C207.098 32.7334 207.182 32.3703 206.735 32.3703H201.931C201.652 32.3703 201.345 32.7055 201.289 32.8451C201.121 33.2361 200.87 33.5992 200.59 33.8785C200.032 34.4371 199.082 35.0516 197.602 35.0516C195.675 35.0516 194.558 34.0461 193.971 32.901C193.496 32.0072 193.245 30.7783 193.301 29.6611H206.679C207.21 29.5773 207.405 29.2701 207.433 28.5439V28.3764C207.377 25.0527 206.288 22.6787 205.059 21.2543C203.691 19.5506 201.233 17.791 197.351 17.791Z" fill="#004819"/>
<path d="M136.828 18.127H127.248H124.147C124.147 21.8416 127.778 23.0984 130.46 23.0984H139.09H143.14C143.14 19.3838 139.509 18.127 136.828 18.127Z" fill="#004819"/>
<path d="M136.828 26.002H127.248H124.147C124.147 29.7166 127.778 30.9734 130.46 30.9734H139.09H143.14C143.14 27.2867 139.509 26.002 136.828 26.002Z" fill="#004819"/>
<path d="M136.828 33.8789H127.248H124.147C124.147 37.5656 127.778 38.8504 130.46 38.8504H139.09H143.14C143.14 35.1637 139.509 33.8789 136.828 33.8789Z" fill="#004819"/>
</svg>
