<svg width="111" height="117" viewBox="0 0 111 117" fill="none" xmlns="http://www.w3.org/2000/svg">
<path d="M110.541 0H0V117H110.541V0Z" fill="#D71A21"/>
<path d="M60.1428 29.0108C59.4468 29.9131 59.0602 31.0215 59.0602 32.1557C59.0602 32.5424 59.0602 41.6934 59.0602 42.0285C59.0086 42.7761 58.7251 43.4721 58.2611 44.065C58.0033 44.3228 56.4824 45.689 56.3535 45.8436L57.2042 45.8694C57.4877 45.6116 60.4264 43.0081 60.7099 42.6472C61.5606 41.7192 62.0504 40.5077 62.0504 39.2446C62.0504 38.8321 62.0504 30.1451 62.0504 29.7584C62.0246 28.8046 62.3855 27.8508 63.0557 27.1549C63.4166 26.7682 64.5508 25.8144 64.757 25.5824L63.8548 25.5566C63.6744 25.7886 60.4522 28.7015 60.1428 29.0108Z" fill="white"/>
<path d="M52.8984 64.9199L56.4815 68.039H58.8788C61.1731 68.039 63.3899 67.1368 65.0139 65.5128C66.4832 64.0435 67.0246 62.0586 67.0246 60.2026V55.0728C66.9988 53.9129 66.509 52.8044 65.6326 52.0311C65.4779 51.8764 64.421 50.8711 64.421 50.8711V54.8151C64.421 54.8151 65.581 56.0008 65.7873 56.2328C66.8441 57.3671 66.8441 59.4293 63.4673 62.703C62.8744 63.2701 61.1988 64.8683 58.8788 64.8683L52.8984 64.9199Z" fill="white"/>
<path d="M62.8741 43.8597C62.4874 44.2722 62.1008 45.3033 62.1008 46.2313V48.1646H64.0599C64.8332 48.1646 65.8385 47.4686 66.0447 47.1077C66.0447 47.0819 66.0447 45.1744 66.0447 45.1744C66.3283 45.5868 66.6892 45.9735 67.1016 46.2828C67.3079 46.025 69.1123 43.8597 70.6074 43.8339C73.1078 43.8082 72.5407 46.9788 71.5354 47.9841C71.2003 48.3193 69.731 49.6597 69.267 50.0979C68.0812 51.2321 66.0447 50.6908 66.0447 47.7779C66.0447 47.7779 63.8794 49.8401 63.5443 50.1237C63.2092 50.4072 62.1008 51.593 62.1008 51.593V56.7228C62.1008 59.1716 61.3017 59.9965 60.6314 60.7441C60.3737 61.0276 57.6155 63.5538 57.2288 63.8374L56.3266 63.8632C56.3266 63.8632 57.9506 62.3938 58.2599 62.0587C58.6208 61.6721 59.059 60.8987 59.059 59.6099C59.059 59.2747 59.0075 51.5672 59.0075 51.5672H46.428C42.0458 51.5672 41.1178 46.721 41.092 45.4064C41.092 45.0197 41.092 41.1531 41.092 40.5344C41.092 39.7353 40.5765 38.3949 39.7773 37.9824H41.0147C41.1693 38.034 41.9427 38.3433 41.9427 41.3335C41.9427 41.3335 41.8911 44.7877 41.8911 44.9939C41.8911 46.5148 43.1027 48.2419 44.8298 48.2419L59.059 48.2161C59.059 47.8295 59.4457 46.3859 60.1417 45.6126C60.5283 45.1744 63.5959 42.3904 63.931 42.1068H64.8332C64.7043 42.2357 63.2092 43.5504 62.8999 43.9113L62.8741 43.8597ZM67.5399 46.7726C67.9007 47.2624 68.3132 47.7521 68.7514 48.1904C70.2981 49.4277 71.0198 48.0873 69.9887 46.6953C69.5763 46.1282 68.0039 46.2828 67.5399 46.7726Z" fill="white"/>
<path d="M52.281 55.9488C52.281 56.6448 50.0899 58.475 49.961 58.5781C49.8063 57.8306 49.2392 57.0315 47.6152 55.3817L50.0126 52.9844C51.6365 54.6084 52.281 54.9693 52.281 55.9488Z" fill="white"/>
<path d="M56.4565 28.3926C56.9463 28.8823 57.9774 30.1712 57.3587 30.8157C56.8174 31.357 55.9667 32.2334 55.9667 32.2334C55.9152 31.9241 55.1161 31.1508 55.1161 31.1508C55.1161 31.1508 55.1161 33.4708 55.1161 33.7543C55.0903 34.8112 54.7036 35.0948 54.7036 35.0948C54.7036 35.0948 56.637 37.0023 56.637 39.4769C56.637 40.6627 56.637 41.7712 56.637 42.0032C56.6627 42.4672 56.4823 42.9569 56.1472 43.292C55.9667 43.4983 54.1881 45.3027 53.9045 45.5347C53.4921 45.8956 52.9765 46.1018 52.4352 46.076H45.7588C44.7019 46.076 43.6193 45.2511 43.6193 44.4263C43.6193 44.22 43.645 41.9516 43.645 41.9516C43.9802 42.3383 44.341 42.8023 45.1659 42.8023C45.8361 42.8023 46.5064 42.2867 46.6868 42.0805C46.8672 41.8743 51.7392 36.8219 51.7392 36.8219C51.7392 36.8219 49.4708 34.7081 47.9757 33.7028C47.2539 33.213 46.2744 33.8316 46.1197 34.4761C45.6557 36.4867 46.1197 39.5285 46.1197 39.5285L44.2895 37.6983C43.5419 36.9507 43.5677 35.2752 44.4699 34.3988C44.5988 34.2441 45.965 32.749 47.6663 32.749H50.3214C52.1001 32.749 54.0592 34.5276 54.0592 34.5276C54.2139 34.3472 54.317 34.141 54.3428 33.909C54.3428 32.981 54.317 30.5321 54.317 30.5321C52.9765 29.1917 52.7961 27.7997 53.4405 27.1552C54.6521 25.9437 55.0903 25.5312 55.0903 25.5312C55.0903 25.5312 55.0388 27.0006 56.4565 28.3926ZM48.0788 41.7969C47.4086 42.4929 47.3055 42.6476 46.6868 43.0343H54.2139C56.2503 43.0343 55.8379 41.7712 55.477 41.1267C54.7294 39.8121 52.3579 37.389 52.3579 37.389C52.3579 37.389 48.2077 41.668 48.0788 41.7969Z" fill="white"/>
<path d="M39.4951 48.6543H38.2578C38.2578 48.6543 39.5725 49.3761 39.5725 51.2578V57.264C39.5725 61.1564 42.7947 64.7653 46.7129 64.7653H49.9866C51.9457 64.7653 52.6417 64.3013 53.8275 63.2444C54.2657 62.8578 54.8328 62.2133 55.0391 61.9813C55.7093 61.208 56.4568 60.5893 56.4568 58.5787V56.6196C56.4568 54.9183 55.4773 54.2223 54.9875 53.7325C54.6782 53.4232 53.8533 52.6241 53.8533 52.6241V56.6454C53.8533 56.6454 54.6782 57.5218 55.0391 57.8054C56.7404 59.1458 55.3999 61.4658 53.8017 61.4658C53.4924 61.4658 47.0738 61.4658 46.6098 61.4658C43.9804 61.5173 40.3974 59.1716 40.3974 55.2018V51.9538C40.4231 48.6543 39.4951 48.6543 39.4951 48.6543Z" fill="white"/>
<path d="M47.3845 55.9742C47.3845 56.6702 45.1934 58.5004 45.0645 58.6035C44.9099 57.856 44.3427 57.0569 42.7188 55.4071L45.1161 53.0098C46.7143 54.608 47.3845 54.9689 47.3845 55.9742Z" fill="white"/>
<path d="M22.2497 82.655H18.3831C17.1716 82.655 17.2747 81.6497 17.1458 80.799V75.2826C17.1458 75.2826 17.9964 75.2568 18.9502 75.2568C20.0071 75.2568 21.3475 75.1021 22.6364 75.8239C21.9662 74.4061 20.5226 73.5297 18.9502 73.5813H17.1716V71.8026C17.1716 71.8026 17.1716 70.2559 16.7849 69.8177H19.3369C21.528 69.8177 23.2293 69.7919 25.008 70.9519C25.008 70.9519 24.6728 68.0391 20.4195 68.0391H12.1191C12.1191 68.0391 13.5627 69.2764 13.5111 71.7768L13.5627 81.8301C13.5627 84.3563 14.568 84.4336 14.568 84.4336H22.7395C24.5955 84.4336 25.24 83.119 25.24 82.3972L25.2657 81.4434C25.2657 81.4434 24.6728 82.655 22.2497 82.655Z" fill="white"/>
<path d="M44.0064 81.804V74.7667C44.0064 72.0343 41.7895 71.3125 40.114 71.3125C37.9229 71.3125 37.2527 73.1427 36.9691 73.7872C36.4794 72.0858 34.7523 71.3125 33.3603 71.3125C30.7052 71.3125 30.0349 73.8387 30.0349 73.8387C30.0349 73.8387 29.9834 71.3898 27.8438 71.3898H25.7559C25.7559 71.3898 26.9674 71.8796 26.9674 73.9934V81.804C26.9674 84.3818 27.9985 84.4333 27.9985 84.4333H31.4527C30.6278 83.8147 30.1381 82.8351 30.1381 81.7782V74.844C30.1896 74.5347 30.7052 73.5036 32.1745 73.5036C33.0252 73.5036 33.9531 74.38 33.9274 75.3596V81.804C33.9274 84.4075 34.9585 84.4333 34.9585 84.4333H38.4127C37.5878 83.7889 37.098 82.8351 37.098 81.7782V74.844C37.4331 73.8387 38.5158 73.2716 39.5469 73.6067C40.3202 73.8645 40.8616 74.5605 40.8873 75.3854C40.8873 75.3854 40.8873 81.2627 40.8873 81.804C40.9131 84.4333 41.9184 84.4075 41.9184 84.4075C43.7229 84.4075 45.3726 84.4075 45.3726 84.4075C44.522 83.7889 44.0322 82.8351 44.0064 81.804Z" fill="white"/>
<path d="M50.0384 81.8032C50.0384 82.8343 50.5282 83.8139 51.3531 84.4325C51.3531 84.4325 49.7033 84.4325 47.8989 84.4325C47.8989 84.4325 46.842 84.4583 46.842 81.829V73.9668C46.842 71.9046 45.6562 71.3633 45.6562 71.3633H47.7442C48.4918 71.3633 50.0127 71.3633 50.0127 74.2762V81.7517L50.0384 81.8032Z" fill="white"/>
<path d="M60.6589 72.3682C60.6589 72.3682 60.3238 71.4402 58.906 71.4402C56.7407 71.4402 56.2252 74.018 56.2252 74.018C56.0447 71.9816 55.5034 71.3887 53.9825 71.3887H51.8945C51.8945 71.3887 53.1061 71.8784 53.1061 73.9922V81.8028C53.1061 84.3806 54.1372 84.4322 54.1372 84.4322H57.5914C56.7665 83.8135 56.2767 82.8339 56.2767 81.8028V75.3842C56.3541 74.8429 56.6634 74.3531 57.1274 74.0695C58.2874 73.2962 59.8083 73.5282 60.7105 74.5851L60.6589 72.3682Z" fill="white"/>
<path d="M76.7163 72.8341C77.4381 72.8341 78.1341 73.0146 78.7527 73.3497V71.3906H75.8657V68.4004C75.247 69.3799 74.4479 70.2564 73.5457 71.0039C72.5661 71.803 70.5039 72.8084 70.5039 72.8084L72.695 72.8341V81.9079C72.695 84.4341 73.7519 84.4341 73.7519 84.4341C75.6337 84.4341 77.1803 84.4341 77.1803 84.4341C76.3554 83.8412 75.8657 82.8874 75.8399 81.8821V72.8341C76.7679 72.8341 76.1492 72.8341 76.7163 72.8341Z" fill="white"/>
<path d="M87.1832 76.7777C85.2499 78.7883 83.729 78.479 82.5175 79.9741C82.5175 79.9741 82.7237 81.9847 84.2446 82.6807C84.7601 82.9127 86.8997 83.6861 88.2659 81.3145V83.4283C88.2659 83.4283 87.3894 84.4594 84.5797 84.4594C81.2028 84.4594 78.8828 81.8043 78.8828 78.1954C78.8828 74.6381 80.7646 71.3644 84.3477 71.3386C87.8277 71.287 89.7352 74.1226 87.1832 76.7777ZM85.0694 75.9528C85.6366 74.8959 86.1005 72.215 84.1414 72.3697C81.873 72.5501 82.3112 78.5563 82.3112 78.5563C83.0588 77.7314 84.193 77.551 85.0694 75.9528Z" fill="white"/>
<path d="M48.44 70.3324C49.3164 70.3066 49.9867 69.5848 49.9867 68.7342C49.9609 67.8577 49.2391 67.1875 48.3885 67.1875C47.5378 67.2133 46.8418 67.9093 46.8418 68.7599C46.8418 69.6364 47.5636 70.3324 48.44 70.3324Z" fill="white"/>
<path d="M64.2417 82.9388C63.4684 82.9388 62.9013 82.1139 62.9013 81.2891C62.9013 78.0411 65.5564 77.5771 66.2781 76.7264V82.217C65.943 82.4748 65.6337 82.9388 64.2417 82.9388ZM66.2781 75.4633C65.479 76.8553 59.2408 77.1646 60.1946 81.9851C60.5813 83.8926 61.8444 84.4597 63.4426 84.4597C64.9893 84.4597 65.943 83.6606 66.3297 82.8873C66.5617 84.3308 67.3092 84.4339 67.3092 84.4339C69.1137 84.4339 70.7634 84.4339 70.7634 84.4339C69.9386 83.8153 69.423 82.8615 69.423 81.8304V74.4838C69.423 72.7309 67.4897 71.3647 65.4275 71.3647C64.2675 71.3389 63.159 71.674 62.2053 72.3184V74.5869C62.2053 74.5869 62.927 72.7824 64.7057 72.7824C66.4586 72.7824 66.5875 73.6589 66.5875 74.0971C66.6132 74.5611 66.5359 75.0509 66.2781 75.4633Z" fill="white"/>
<path d="M94.8136 80.876C94.8394 81.804 94.0145 83.0155 92.2616 83.0155C90.4572 83.0155 89.7354 81.1853 89.7354 81.1853V83.5053C90.715 84.124 91.8492 84.4333 93.0092 84.4333C95.3549 84.4333 97.7523 82.6547 97.7007 80.1542C97.6749 79.3293 97.3914 78.5302 96.9016 77.8858C96.1025 76.8289 94.6589 76.0814 93.5247 75.3854C92.8803 74.9987 92.5452 74.2769 92.5452 74.0449C92.5194 73.6067 92.7514 72.7303 94.4785 72.7303C96.1798 72.7303 96.9274 74.5347 96.9274 74.5347V72.3436C95.9736 71.6734 94.8136 71.3125 93.6278 71.3125C91.5656 71.3125 89.6839 72.6787 89.7354 74.4316C89.7612 75.9782 90.4056 76.9578 91.6687 77.9116C92.2358 78.324 92.8287 78.6849 93.4474 79.02C94.4269 79.5613 94.7878 80.2316 94.8136 80.876Z" fill="white"/>
</svg>
