<svg width="306" height="86" viewBox="0 0 306 86" fill="none" xmlns="http://www.w3.org/2000/svg">
<path d="M81.8574 39.131C81.4581 39.9296 80.6594 40.7281 80.2601 41.1274C80.2601 41.5268 80.2601 42.3254 80.2601 42.7246C80.2601 47.9155 79.0622 52.7073 77.0658 57.499C75.0691 61.8912 72.274 66.2837 69.0797 69.478C65.4859 73.0718 61.4927 75.867 57.1005 77.4641C52.3088 79.4607 47.5172 80.6586 42.3263 80.6586C37.1353 80.6586 32.3437 79.4607 27.5519 77.4641C23.1596 75.4676 18.7673 72.6725 15.5728 69.478C11.9791 65.8844 9.184 61.8912 7.58678 57.499C5.59026 52.7073 4.39234 47.9155 4.39234 42.7246C4.39234 37.5336 5.59026 32.742 7.58678 27.9504C9.58329 23.5581 12.3784 19.1657 15.5728 15.9713C19.1667 12.3776 23.1596 9.58243 27.5519 7.98521C29.5486 7.1866 31.545 6.38799 33.5415 5.9887C33.9408 5.19009 34.7395 4.39149 35.1388 3.59289C35.9373 2.39496 36.736 1.19705 37.5346 0.398438C16.3715 2.79426 0 20.763 0 42.7246C0 66.2835 19.1667 85.4502 42.7256 85.4502C65.8852 85.4502 84.6525 66.6829 84.6525 43.1239C84.6525 40.7281 84.6525 38.3323 84.2532 36.3358C83.4545 37.1345 82.6559 37.933 81.8574 39.131Z" fill="url(#paint0_linear_801_37)"/>
<path d="M49.5135 5.5894C51.9093 5.98871 54.7044 6.78731 57.1002 7.98521C61.4925 9.98172 65.885 12.7769 69.0795 15.9713C71.8746 18.7665 74.2704 21.9608 76.2669 25.5546L78.6627 26.7526L82.2565 28.3497C76.6662 13.1762 62.2912 1.59635 45.5205 0.398438L47.9163 3.19357L49.5135 5.5894Z" fill="url(#paint1_linear_801_37)"/>
<path d="M36.7361 5.19097C33.5416 9.18401 30.3472 15.5729 31.5452 21.5625C32.743 29.1492 34.7396 31.545 35.9374 32.3437C36.3368 32.743 36.7361 32.743 36.7361 32.743C36.7361 32.743 37.9339 34.3402 37.9339 35.9373C37.9339 37.5346 37.5348 37.934 37.5348 37.934C37.5348 37.934 36.3368 37.934 35.5381 38.3331C34.3403 38.7325 33.1423 40.3298 33.1423 40.3298C33.1423 40.3298 34.3403 40.7291 35.139 41.1283C35.5381 41.1283 35.5381 41.5276 35.5381 41.9269C35.5381 41.9269 36.3368 45.5207 32.3438 47.9165C28.3507 50.3124 22.3611 49.913 20.7639 51.111C19.1668 52.3088 16.3716 55.5033 16.3716 55.5033C16.3716 55.5033 19.1668 60.2949 25.1562 64.6872C30.7465 69.0797 36.3368 70.6768 36.3368 70.6768C36.3368 70.6768 38.7326 67.083 39.5312 65.0865C40.3299 63.0901 38.3333 57.4998 39.5312 53.1075C40.7291 48.3159 44.3229 48.3159 44.7222 48.3159C45.1215 48.3159 45.1215 48.3159 45.5209 48.715C46.3193 49.1144 46.7187 50.3124 46.7187 50.3124C46.7187 50.3124 47.5173 49.1144 47.9167 47.5172C47.9167 46.3192 47.9167 45.1214 47.9167 45.1214C47.9167 45.1214 48.316 44.7221 49.9131 44.3227C50.3125 44.3227 50.7118 44.3227 51.111 44.3227C52.309 44.3227 53.5069 44.7221 53.5069 44.7221C53.5069 44.7221 53.5069 45.1214 54.3054 45.5207C55.1041 46.3192 57.1006 47.1179 61.8922 47.1179C63.0902 47.1179 64.6873 47.1179 66.2847 46.7186C72.6734 46.3192 77.465 41.1283 80.6595 37.1353C82.2568 34.7395 83.4547 33.1422 84.2533 31.9444C84.2533 31.545 84.6526 31.545 84.6526 31.545H84.2533L79.0624 29.1492L71.8749 25.9548L67.8818 26.7534L50.7118 13.5764V10.7812L45.92 4.79165L42.3264 0.399308L41.9271 0C41.9271 0 41.9271 4.05312e-06 41.5277 0.399308C39.9306 1.19792 38.3333 2.79514 36.7361 5.19097ZM64.6873 36.736C68.2811 33.5415 68.2811 33.5415 68.2811 33.5415H72.2741C72.2741 33.5415 72.2741 32.743 71.8749 31.545C71.8749 31.1457 71.4756 31.1457 71.4756 30.7464L71.0763 30.347L72.6734 29.9479L79.0624 32.743C79.0624 32.743 73.4721 41.1283 67.8818 42.7256C65.8853 43.1249 63.4895 43.5241 61.8922 43.5241C59.0971 43.5241 57.1006 43.1249 56.7012 43.1249C56.7012 43.1249 61.0937 39.5311 64.6873 36.736ZM41.5277 5.19097L46.3193 10.7812V12.3784C46.3193 12.3784 45.5209 11.9791 45.1215 11.9791C44.7222 11.9791 44.3229 11.9791 43.9235 11.9791C43.5242 11.9791 43.1249 11.9791 43.1249 11.9791L44.3229 15.5729C44.3229 15.5729 44.3229 15.5729 42.3264 19.566C40.3299 23.5589 38.3333 29.1492 37.9339 29.1492C37.9339 28.7499 35.139 23.9583 35.139 18.368C34.7396 12.7777 41.5277 5.19097 41.5277 5.19097Z" fill="white"/>
<path d="M125.78 24.8906L117.262 47.2516H123.385L124.583 43.1255H132.303L133.5 47.2516H140.022L131.504 24.8906H125.78ZM125.78 39.2657L128.176 31.5458L130.572 39.2657H125.78Z" fill="#00DAE6"/>
<path d="M154.398 37.5352L149.074 24.8906H141.753V47.784H147.477V31.9449L152.801 44.4566H156.394L161.719 31.4127L161.319 47.784H167.442V24.8906H159.722L154.398 37.5352Z" fill="#00DAE6"/>
<path d="M171.035 47.784H187.007V43.2586H176.759V37.9346H185.41V33.9416H176.759V29.416H187.406V24.8906H171.035V47.784Z" fill="#00DAE6"/>
<path d="M205.775 24.8906L197.256 47.2516H203.379L204.576 43.1255H212.297L213.494 47.2516H219.618L210.699 24.8906H205.775ZM205.775 39.2657L208.17 31.5458L210.567 39.2657H205.775Z" fill="white"/>
<path d="M238.783 35.9372C239.582 34.7392 239.982 33.5414 239.982 31.8111C239.982 29.8145 239.183 28.0842 237.587 26.8862C235.989 25.6884 233.859 25.2891 231.064 25.2891H221.746V47.65H227.47V38.7323H230.664L234.79 47.65H240.914V47.2509L235.989 38.333C237.187 37.5343 237.984 36.7358 238.783 35.9372ZM233.459 33.5414C233.061 33.9407 232.262 34.34 231.064 34.34H227.337V29.016H231.064C232.262 29.016 233.061 29.4151 233.459 29.8145C233.859 30.2138 234.258 30.6131 234.258 31.4118C233.859 32.7427 233.859 33.142 233.459 33.5414Z" fill="white"/>
<path d="M243.177 47.784H259.548V43.2586H248.901V37.9346H257.951V33.9416H248.901V29.416H259.548V24.8906H243.177V47.784Z" fill="white"/>
<path d="M275.786 39.2657L267.667 24.8906H261.943V47.784H267.667V33.5423L275.786 47.784H281.51V24.8906H275.786V39.2657Z" fill="white"/>
<path d="M292.157 24.8906L283.638 47.2516H289.762L290.958 43.1255H298.68L299.877 47.2516H306L297.082 24.8906H292.157ZM292.157 39.2657L294.552 31.5458L296.949 39.2657H292.157Z" fill="white"/>
<path d="M105.816 35.1391V39.6645H110.341V40.4632C110.341 42.0603 108.744 43.6576 107.147 43.6576H105.949C104.352 43.6576 102.755 42.0603 102.755 40.4632V32.344C102.755 30.7468 104.352 29.1495 105.949 29.1495H107.147C108.744 29.1495 110.341 30.3475 110.341 31.9446H115.665C115.266 27.8186 111.539 25.0234 107.546 25.0234H105.15C100.625 25.0234 97.0312 28.7502 97.0312 33.1426V39.2652C97.0312 43.7908 100.758 47.3844 105.15 47.3844H107.546C112.072 47.3844 115.665 43.6576 115.665 39.2652V35.1391H105.816Z" fill="#00DAE6"/>
<path d="M179.207 53.543H105.995C101.167 53.543 97.2529 57.4568 97.2529 62.2848V62.2848C97.2529 67.1128 101.167 71.0266 105.995 71.0266H179.207C184.035 71.0266 187.949 67.1128 187.949 62.2848V62.2848C187.949 57.4568 184.035 53.543 179.207 53.543Z" fill="#2196F3"/>
<path d="M104.485 62.8229H107.945V61.625H104.485V59.2291H108.478V58.0312H102.887V66.5498H108.478V65.4849H104.485V62.8229Z" fill="white"/>
<path d="M112.338 62.4238H109.276V63.6218H112.338V62.4238Z" fill="white"/>
<path d="M118.327 62.4235C117.928 62.1573 117.395 61.8913 116.73 61.7582C116.064 61.625 115.532 61.3588 115.266 61.0926C115 60.8264 114.867 60.5602 114.867 60.294C114.867 59.8946 115 59.6284 115.266 59.3622C115.532 59.0961 115.931 59.0961 116.331 59.0961C116.863 59.0961 117.262 59.2292 117.529 59.4953C117.795 59.7615 117.928 60.1608 117.928 60.5602H119.392C119.392 60.0277 119.259 59.6284 118.993 59.2291C118.727 58.8299 118.327 58.5637 117.928 58.2975C117.529 58.0313 116.996 58.0312 116.331 58.0312C115.399 58.0312 114.733 58.2975 114.201 58.6968C113.669 59.0961 113.402 59.7615 113.402 60.4271C113.402 61.2257 113.802 61.8911 114.6 62.2904C115 62.5566 115.532 62.8229 116.198 62.956C116.863 63.2222 117.395 63.3553 117.662 63.6215C117.928 63.8877 118.061 64.154 118.061 64.5531C118.061 64.9525 117.928 65.2187 117.662 65.3518C117.395 65.618 116.996 65.618 116.464 65.618C115.931 65.618 115.399 65.4849 115.133 65.2187C114.866 64.9525 114.6 64.5533 114.6 64.154H113.136C113.136 64.6862 113.269 65.2187 113.536 65.618C113.802 66.0173 114.201 66.2836 114.733 66.5498C115.266 66.816 115.798 66.9491 116.464 66.9491C117.395 66.9491 118.194 66.6829 118.727 66.2836C119.259 65.8842 119.525 65.3518 119.525 64.5531C119.525 64.154 119.392 63.7546 119.259 63.3553C119.126 62.956 118.727 62.6898 118.327 62.4235Z" fill="white"/>
<path d="M124.051 58.0312H120.856V66.5498H122.32V63.3553H124.051C124.982 63.3553 125.781 63.0891 126.313 62.6898C126.846 62.2904 127.112 61.625 127.112 60.6933C127.112 59.8946 126.846 59.2292 126.313 58.6968C125.781 58.2975 124.982 58.0312 124.051 58.0312ZM125.248 61.8911C124.982 62.1573 124.583 62.2904 124.051 62.2904H122.32V59.3622H124.184C124.716 59.3622 125.115 59.4953 125.382 59.7615C125.648 60.0277 125.781 60.4271 125.781 60.8264C125.648 61.2257 125.515 61.6251 125.248 61.8911Z" fill="white"/>
<path d="M133.501 58.4309C132.968 58.0315 132.303 57.8984 131.637 57.8984C130.972 57.8984 130.306 58.0315 129.774 58.4309C129.241 58.8302 128.842 59.2295 128.576 59.8951C128.31 60.5605 128.177 61.226 128.177 62.1578V62.6901C128.177 63.4887 128.31 64.2874 128.576 64.8198C128.842 65.4852 129.241 65.8845 129.774 66.2839C130.306 66.6832 130.972 66.8163 131.637 66.8163C132.303 66.8163 132.968 66.6832 133.501 66.2839C134.033 65.8845 134.432 65.4852 134.699 64.8198C134.965 64.1543 135.098 63.4887 135.098 62.5569V62.0247C135.098 61.226 134.965 60.4274 134.699 59.8951C134.565 59.2295 134.033 58.8302 133.501 58.4309ZM133.767 62.5569C133.767 63.4887 133.634 64.2874 133.235 64.6867C132.835 65.2191 132.436 65.4852 131.77 65.4852C131.105 65.4852 130.572 65.2191 130.306 64.6867C129.907 64.1543 129.774 63.4887 129.774 62.5569V62.0247C129.774 61.0929 129.907 60.4274 130.306 59.8951C130.706 59.3626 131.105 59.0964 131.77 59.0964C132.436 59.0964 132.968 59.3626 133.235 59.8951C133.634 60.4274 133.767 61.0929 133.767 62.0247V62.5569Z" fill="white"/>
<path d="M142.286 62.1572C142.552 61.7579 142.685 61.3585 142.685 60.693C142.685 59.8945 142.419 59.2289 141.887 58.8296C141.354 58.4303 140.556 58.1641 139.624 58.1641H136.696V66.6826H138.16V63.355H139.757L141.487 66.6826H143.085V66.5495L141.221 62.9559C141.754 62.8227 142.02 62.4234 142.286 62.1572ZM139.757 62.1572H138.293V59.362H139.89C140.423 59.362 140.822 59.4952 141.088 59.7614C141.354 60.0276 141.487 60.4269 141.487 60.8261C141.487 61.2254 141.354 61.6248 141.088 61.891C140.556 62.0241 140.156 62.1572 139.757 62.1572Z" fill="white"/>
<path d="M143.35 59.2291H145.879V66.5498H147.343V59.2291H150.006V58.0312H143.35V59.2291Z" fill="white"/>
<path d="M158.524 62.1572C158.924 62.0241 159.19 61.7579 159.456 61.4916C159.722 61.2254 159.722 60.8261 159.722 60.4269C159.722 59.6283 159.456 59.0958 158.924 58.6965C158.391 58.2972 157.726 58.1641 156.794 58.1641H153.866V66.6826H156.927C157.859 66.6826 158.657 66.4164 159.057 66.017C159.589 65.6179 159.855 64.9523 159.855 64.1537C159.855 63.6212 159.722 63.2219 159.456 62.9559C159.323 62.5565 158.924 62.2903 158.524 62.1572ZM155.33 59.2289H156.794C157.326 59.2289 157.726 59.362 157.859 59.4952C158.125 59.6283 158.258 60.0276 158.258 60.4269C158.258 60.8261 158.125 61.0923 157.859 61.3585C157.592 61.6247 157.193 61.6247 156.794 61.6247H155.33V59.2289ZM157.992 65.0854C157.726 65.3517 157.326 65.4848 156.927 65.4848H155.33V62.8227H157.06C157.992 62.8227 158.391 63.355 158.391 64.1537C158.391 64.553 158.258 64.8192 157.992 65.0854Z" fill="white"/>
<path d="M162.916 62.8229H166.377V61.625H162.916V59.2291H166.909V58.0312H161.452V66.5498H166.909V65.4849H162.916V62.8229Z" fill="white"/>
<path d="M174.364 58.0312H167.708V59.2291H170.236V66.5498H171.702V59.2291H174.364V58.0312Z" fill="white"/>
<path d="M177.291 58.0312L174.097 66.5498H175.695L176.36 64.5531H179.688L180.353 66.5498H181.951L178.755 58.0312H177.291ZM176.627 63.4884L177.824 59.8946L179.022 63.4884H176.627Z" fill="white"/>
<defs>
<linearGradient id="paint0_linear_801_37" x1="42.3263" y1="0.465004" x2="42.3263" y2="85.7042" gradientUnits="userSpaceOnUse">
<stop stop-color="#4AB3C3"/>
<stop offset="1" stop-color="#44AED7"/>
</linearGradient>
<linearGradient id="paint1_linear_801_37" x1="63.8885" y1="0.435851" x2="63.8885" y2="85.6749" gradientUnits="userSpaceOnUse">
<stop stop-color="#4AB3C3"/>
<stop offset="1" stop-color="#44AED7"/>
</linearGradient>
</defs>
</svg>
