<svg width="99" height="101" viewBox="0 0 99 101" fill="none" xmlns="http://www.w3.org/2000/svg">
<g clip-path="url(#clip0_701_645)">
<path d="M30.3942 83.9903V93.3987C30.3942 96.0712 29.0681 97.4971 26.6585 97.4971C24.2354 97.4971 22.9013 96.03 22.9013 93.2847V84.0006H19.5676V93.3987C19.5676 98.023 22.1362 100.673 26.6146 100.673C31.1354 100.673 33.7279 97.9722 33.7279 93.2632V83.9903H30.3942ZM42.6596 83.9903L35.4191 100.417H38.822L40.2196 97.2354L40.3196 96.997H47.8415L49.3167 100.417H52.8122L45.639 84.0875L45.5745 83.9902L42.6596 83.9903ZM62.4814 83.9903L58.7504 95.2927L55.1185 83.9987H51.5707L57.2976 100.427H60.0582L63.7967 89.635L67.5324 100.427H70.3165L76.0294 83.9987H72.5723L68.9329 95.2927L65.2009 83.9903H62.4814ZM95.1052 83.9903V100.403H98.395V83.9903H95.1052ZM0.746094 83.9913V100.426H4.08074V93.7512H11.6101V100.426H14.9457V83.9913H11.6101V90.6213H4.08074V83.9913H0.746094ZM78.718 84.0024V100.415H91.1292V97.4223H82.0078V93.3529H88.0732V90.3594H82.0078V86.9949H90.8114V84.0024H78.718ZM44.0721 88.1494L46.4495 93.652H46.4412L46.6029 94.0316H41.5593L41.7191 93.652H41.7163L44.0721 88.1494Z" fill="white"/>
<path d="M42.2713 -0.00174111C40.9486 0.115253 37.3743 0.928822 37.3743 0.928822H37.3728C29.3165 3.01117 27.4123 10.3221 27.4123 10.3221C27.0189 11.5515 26.8402 12.8114 26.7876 13.9984V15.614C26.8945 18.1101 27.4496 19.9739 27.4496 19.9739C30.1407 31.9066 43.3724 51.5138 46.2161 55.6327C46.4178 55.8328 46.5794 55.7605 46.5794 55.7605C46.8863 55.6758 46.8623 55.3814 46.8623 55.3814L46.8681 55.3829C51.2482 11.6029 42.2713 -0.0016987 42.2713 -0.0016987L42.2713 -0.00174111ZM56.7439 -0.00174111C56.7439 -0.00174111 47.7278 11.609 52.1112 55.4144H52.117C52.1509 55.6925 52.3482 55.7504 52.3482 55.7504C52.6415 55.8641 52.7919 55.5823 52.7919 55.5823L52.7934 55.5851C55.7101 51.3611 68.8663 31.8606 71.5455 19.9737C71.5455 19.9737 72.9981 14.2203 71.5958 10.3219C71.5958 10.3219 69.6042 2.89773 61.5376 0.935797C61.5376 0.935797 59.213 0.345665 56.7441 -0.00195312L56.7439 -0.00174111ZM15.157 13.1411C15.157 13.1411 7.4808 20.4268 7.09927 28.1508H7.10232V29.3212C7.10816 29.4093 7.11261 29.4985 7.11816 29.5882C7.44883 35.8166 12.1343 39.5028 12.1343 39.5028C19.6837 46.8605 37.9634 56.15 42.2112 58.2578C42.2707 58.28 42.4901 58.3517 42.619 58.1889C42.619 58.1889 42.6861 58.138 42.7167 58.0465V57.8526C42.7136 57.8415 42.7078 57.8303 42.7022 57.8181H42.7037C31.0711 32.4061 15.1572 13.1408 15.1572 13.1408L15.157 13.1411ZM83.8395 13.1411C83.8395 13.1411 67.9736 32.3458 56.3461 57.7063L56.3505 57.7049C56.3505 57.7049 56.2132 57.9989 56.4353 58.1889C56.4353 58.1889 56.5015 58.2389 56.5932 58.2592H56.7541C56.783 58.2508 56.814 58.2397 56.8446 58.2189V58.2216C61.2076 56.0562 79.3459 46.8278 86.8597 39.504C86.8597 39.504 91.6179 35.6829 91.8672 29.5478C92.4166 21.0268 83.8396 13.1408 83.8396 13.1408L83.8395 13.1411ZM98.1197 38.3698C98.1197 38.3698 72.2534 52.2509 58.8793 61.2721L58.8808 61.2736L58.8838 61.2764C58.8838 61.2764 58.6411 61.4353 58.7259 61.7201C58.7259 61.7201 58.8528 61.9499 59.0375 61.9499V61.9514C63.8279 61.9598 81.9549 61.98 82.4094 61.8953C82.4094 61.8953 84.7533 61.8017 87.6496 60.689C87.6496 60.689 94.0973 58.6391 97.4464 51.3187C97.4464 51.3187 98.9767 48.2577 98.9987 43.9574V43.7751C98.9876 42.1167 98.754 40.2809 98.1199 38.3698H98.1197ZM0.86963 38.4346C-1.48381 45.7202 1.68451 51.5909 1.68963 51.6003C4.99141 58.5768 11.294 60.6906 11.294 60.6906C14.2038 61.8861 17.1144 61.9687 17.1144 61.9687C17.5688 62.0518 35.2129 61.9771 39.9405 61.9548C40.1406 61.9534 40.2507 61.7522 40.2507 61.7522C40.2646 61.73 40.2769 61.7078 40.2824 61.6875V61.5052C40.2432 61.3832 40.1387 61.2971 40.1387 61.2971L40.1418 61.2956C26.7744 52.2774 0.869842 38.4349 0.869842 38.4349L0.86963 38.4346ZM39.4006 64.1946L8.97189 65.2616C12.2717 71.1441 17.8291 75.7157 23.6183 74.3117C27.6134 73.3129 36.6641 66.9999 39.6519 64.8667L39.6419 64.8584C39.8742 64.6497 39.7912 64.4821 39.7912 64.4821C39.7148 64.2089 39.4006 64.2092 39.4006 64.2092L39.4006 64.1946ZM59.5543 64.2168L59.5512 64.2279C59.5512 64.2279 59.2841 64.2618 59.2094 64.4619C59.2094 64.4619 59.1445 64.7354 59.3243 64.8712L59.3212 64.874C62.2345 66.9631 71.0658 73.1373 75.3204 74.3362C75.3204 74.3362 75.9649 74.5555 77.0451 74.5946H77.6942C80.5447 74.4946 85.5105 73.0302 90.0228 65.2774L59.5543 64.2168Z" fill="#CF0A2C"/>
</g>
<defs>
<clipPath id="clip0_701_645">
<rect width="99" height="100.673" fill="white"/>
</clipPath>
</defs>
</svg>
