<svg width="268" height="38" viewBox="0 0 268 38" fill="none" xmlns="http://www.w3.org/2000/svg">
<path d="M103.039 5.64062V15.6902H91.6493V5.64062H85.3711V32.0106H91.6493V21.4081H103.039V32.0106H109.318V5.64062H103.039Z" fill="white"/>
<path d="M132.32 5.64062L125.754 16.084L119.196 5.64062H111.789L122.626 22.8772V32.0106H128.897V22.8772L139.734 5.64062H132.32Z" fill="white"/>
<path d="M159.914 5.64062V24.9675C159.914 25.7021 159.361 26.2927 158.581 26.2927H148.524V5.64062H142.246V32.0106H160.793C162.444 32.0106 163.769 31.518 164.739 30.5563C165.7 29.587 166.185 28.2618 166.185 26.6184V5.64062H159.914Z" fill="white"/>
<path d="M190.547 5.64062H172V32.0106H178.271V11.3508H188.343C189.153 11.3508 189.668 11.9869 189.668 12.6685V32.0106H195.939V11.0328C195.939 9.38184 195.447 8.0565 194.492 7.0947C193.515 6.12533 192.198 5.64062 190.547 5.64062Z" fill="white"/>
<path d="M220.305 5.64062H201.758V32.0106H220.305C221.956 32.0106 223.273 31.518 224.235 30.5563C225.205 29.587 225.689 28.2618 225.689 26.6184V11.0328C225.689 9.38184 225.204 8.0565 224.235 7.0947C223.273 6.12533 221.948 5.64062 220.305 5.64062ZM219.419 12.714V24.9295C219.419 25.6414 218.904 26.2927 218.086 26.2927H208.021V11.3508H218.04C218.866 11.3508 219.419 11.9264 219.419 12.714Z" fill="white"/>
<path d="M236.625 5.64062C234.981 5.64062 233.649 6.12533 232.687 7.0947C231.717 8.06408 231.24 9.38943 231.24 11.0328V32.0106H237.496V23.8542H248.893V32.0106H255.164V5.64062H236.625ZM248.893 11.3508V18.144H237.496V12.6913C237.496 12.04 238.003 11.3508 238.836 11.3508H248.893Z" fill="white"/>
<path d="M261.266 32.0106H267.544V5.64062H261.266V32.0106Z" fill="white"/>
<path d="M36.3198 37.1908C56.1313 37.1908 72.1941 28.9663 72.1941 18.8258C72.1941 8.67774 56.1313 0.453125 36.3198 0.453125C16.5159 0.453125 0.453125 8.67774 0.453125 18.8258C0.453125 28.9663 16.5159 37.1908 36.3198 37.1908ZM43.0751 28.1787C42.4768 29.5646 41.4469 32.5256 39.0841 33.7071C38.3646 34.0632 37.4785 34.2299 36.6909 34.26C36.509 34.26 36.3804 34.26 36.3271 34.26C29.7081 34.26 23.5436 33.3359 18.3862 31.7683C18.3477 31.7518 18.2274 31.7079 18.1894 31.6925C17.7124 31.5337 17.4699 31.3138 17.4699 31.0413C17.4699 30.8066 17.5986 30.6247 17.7651 30.4581C17.841 30.39 17.947 30.2993 18.091 30.1702C19.2876 29.1781 22.8697 26.5805 29.625 23.9904C31.9954 23.0892 34.9641 21.9608 38.0691 21.302C39.8866 20.9233 46.6419 19.8857 43.075 28.1784L43.0751 28.1787ZM61.1977 9.66195C61.3263 9.44213 61.4933 9.25302 61.8035 9.23764C61.97 9.22115 62.1976 9.25961 62.5457 9.47998C66.7564 12.07 69.2555 15.3114 69.2555 18.8178C69.2555 25.149 61.1144 30.594 49.4668 32.972C48.7246 33.1237 48.2248 33.116 48.0582 32.928C47.9373 32.8143 47.907 32.6099 48.0582 32.3602C48.1263 32.2316 48.2098 32.1177 48.3686 31.9281C54.7073 24.4534 59.539 13.4267 60.9098 10.2459C61.0159 10.0261 61.1143 9.80694 61.1979 9.66296L61.1977 9.66195ZM29.6782 9.42833C30.2764 8.04243 31.3064 5.08117 33.6693 3.90736C34.3887 3.55124 35.2748 3.3771 36.0624 3.35457C36.2443 3.34908 36.3729 3.35457 36.4185 3.35457C43.045 3.35457 49.2021 4.27091 54.367 5.84613C54.4054 5.86262 54.5258 5.90655 54.5637 5.92194C55.0407 6.08076 55.2831 6.30053 55.2831 6.57317C55.2831 6.80783 55.1545 6.98208 54.988 7.14876C54.9122 7.2246 54.8061 7.31527 54.6622 7.43673C53.4732 8.43638 49.8834 11.0264 43.1281 13.6165C40.7502 14.5252 37.789 15.6461 34.6916 16.3049C32.8665 16.6913 26.1112 17.7211 29.6782 9.42849V9.42833ZM23.1727 4.66492C23.9225 4.52093 24.4148 4.52091 24.5965 4.70886C24.7026 4.82977 24.7328 5.02708 24.591 5.27691C24.5152 5.40551 24.4322 5.52701 24.2806 5.70122C17.9418 13.1835 13.1102 24.2025 11.7318 27.3908C11.6334 27.6106 11.5274 27.8299 11.4438 27.9739C11.3224 28.1938 11.1487 28.3829 10.8455 28.3983C10.679 28.4147 10.4443 28.3653 10.0957 28.1559C5.88504 25.5659 3.38594 22.3245 3.38594 18.8181C3.38594 12.4869 11.5271 7.04188 23.1746 4.66391" fill="white"/>
</svg>
