<svg width="251" height="55" viewBox="0 0 251 55" fill="none" xmlns="http://www.w3.org/2000/svg">
<path fill-rule="evenodd" clip-rule="evenodd" d="M30.1736 0.149187C24.5308 -0.445213 18.8424 0.722703 13.8902 3.4924C8.93806 6.2621 4.96531 10.4976 2.51801 15.6168C0.070716 20.7359 -0.730984 26.4874 0.223108 32.0807C1.1772 37.674 3.84025 42.8344 7.84621 46.8528C11.8522 50.8712 17.0044 53.5502 22.5947 54.5216C28.185 55.493 33.9389 54.709 39.0656 52.2776C44.1923 49.8461 48.4401 45.8865 51.2251 40.9429C54.0101 35.9994 55.1956 30.3146 54.6187 24.6699C53.9838 18.3955 51.2063 12.5315 46.7539 8.06531C42.3014 3.59909 36.446 0.803475 30.1736 0.149187ZM29.2837 41.9968C26.2488 42.4039 23.1626 41.8499 20.4589 40.4124C17.7552 38.975 15.5698 36.7265 14.21 33.983C12.8501 31.2394 12.3841 28.1387 12.8775 25.1166C13.3709 22.0946 14.7989 19.3031 16.9607 17.1345C19.1225 14.9659 21.9096 13.5292 24.9301 13.0264C27.9506 12.5235 31.0527 12.9798 33.8005 14.331C36.5483 15.6823 38.8036 17.8606 40.2495 20.5598C41.6954 23.259 42.2591 26.3434 41.8614 29.3796C41.4442 32.5731 39.9857 35.54 37.7119 37.8209C35.4382 40.1018 32.4759 41.5695 29.2837 41.9968ZM69.3083 1.23571C68.3557 1.23799 67.4157 1.45261 66.5565 1.86394C65.6973 2.27527 64.9406 2.87297 64.3415 3.61355C63.7424 4.35413 63.316 5.21895 63.0932 6.14509C62.8704 7.07124 62.8569 8.0354 63.0536 8.96742C63.6563 11.9869 66.4766 14.05 69.5489 14.05H87.3783L59.6317 50.7689C59.4265 51.0399 59.3009 51.3628 59.2689 51.7013C59.2369 52.0398 59.2998 52.3805 59.4506 52.6852C59.6013 52.9899 59.834 53.2467 60.1225 53.4266C60.411 53.6065 60.7439 53.7025 61.0839 53.7038H104.607C107.677 53.7038 110.5 51.6412 111.102 48.6212C111.299 47.6894 111.286 46.7253 111.063 45.7993C110.841 44.8732 110.414 44.0085 109.816 43.2678C109.217 42.5272 108.46 41.9294 107.602 41.5178C106.743 41.1062 105.803 40.8912 104.85 40.8885H83.1266L110.852 4.19812C111.059 3.92441 111.186 3.59837 111.218 3.25659C111.251 2.91481 111.187 2.5708 111.035 2.26316C110.882 1.95553 110.647 1.69643 110.356 1.51495C110.064 1.33346 109.728 1.23677 109.385 1.23571H69.3083ZM243.225 1.38352C241.784 1.72616 240.503 2.55029 239.594 3.71966C238.685 4.88902 238.202 6.33359 238.226 7.81451V29.1498L203.654 1.63869C203.383 1.42348 203.057 1.28918 202.713 1.25124C202.369 1.21329 202.021 1.27325 201.709 1.4242C201.398 1.57515 201.135 1.81097 200.952 2.10452C200.769 2.39808 200.672 2.73745 200.673 3.08359V47.1364C200.649 48.6173 201.132 50.062 202.041 51.2313C202.95 52.4007 204.231 53.2248 205.672 53.5674C206.607 53.7733 207.577 53.7665 208.51 53.5475C209.443 53.3285 210.314 52.9029 211.061 52.3021C211.807 51.7013 212.409 50.9406 212.822 50.0762C213.235 49.2118 213.449 48.2656 213.448 47.3075V25.7876L248.019 53.2993C248.29 53.5143 248.617 53.6485 248.96 53.6864C249.304 53.7243 249.652 53.6644 249.963 53.5135C250.275 53.3626 250.537 53.1269 250.721 52.8335C250.904 52.5401 251.001 52.2009 251 51.8549V7.64129C251.001 6.68345 250.787 5.73759 250.374 4.87346C249.96 4.00933 249.359 3.24895 248.612 2.6484C247.866 2.04785 246.995 1.62243 246.062 1.40351C245.13 1.1846 244.16 1.17777 243.225 1.38352ZM153.21 12.8234C167.833 12.8234 178.759 20.551 178.759 27.4633C178.759 34.3755 167.833 42.1031 153.21 42.1031C138.588 42.1031 127.662 34.3755 127.662 27.4633C127.662 20.551 138.588 12.8234 153.21 12.8234ZM153.21 0.00967579C132.045 0.00967579 114.887 12.3012 114.887 27.4633C114.887 42.6254 132.045 54.9168 153.21 54.9168C174.376 54.9168 191.533 42.6254 191.533 27.4633C191.533 12.3012 174.376 0.00967579 153.21 0.00967579Z" fill="#0069FF"/>
</svg>
