<svg width="267" height="49" viewBox="0 0 267 49" fill="none" xmlns="http://www.w3.org/2000/svg">
<path d="M262.44 1.59783C263.226 1.59783 263.979 1.9099 264.535 2.46539C265.09 3.02088 265.402 3.77428 265.402 4.55986V44.3512C265.401 45.1364 265.089 45.8892 264.533 46.4445C263.978 46.9997 263.225 47.3121 262.44 47.3132H4.55986C3.77462 47.3121 3.02186 46.9997 2.46661 46.4445C1.91136 45.8892 1.59893 45.1364 1.59783 44.3512V4.55986C1.59783 3.77428 1.9099 3.02088 2.46539 2.46539C3.02088 1.9099 3.77428 1.59783 4.55986 1.59783H262.44ZM262.44 0H4.55986C3.35085 0.00110462 2.19167 0.481872 1.33677 1.33677C0.481872 2.19167 0.00110462 3.35085 0 4.55986L0 44.3512C0.00110462 45.5602 0.481872 46.7194 1.33677 47.5743C2.19167 48.4292 3.35085 48.91 4.55986 48.9111H262.44C263.649 48.91 264.808 48.4292 265.663 47.5743C266.518 46.7194 266.999 45.5602 267 44.3512V4.55986C266.999 3.35085 266.518 2.19167 265.663 1.33677C264.808 0.481872 263.649 0.00110462 262.44 0V0Z" fill="url(#paint0_linear_701_6)"/>
<path d="M71.8739 11.6804C69.8714 10.0283 67.1138 9.2009 63.601 9.19811H51.9198C51.7789 9.1923 51.6384 9.21643 51.5075 9.26893C51.3766 9.32143 51.2583 9.40109 51.1605 9.50266C51.0662 9.61238 50.9945 9.73958 50.9494 9.87702C50.9043 10.0145 50.8867 10.1594 50.8977 10.3037V38.6474C50.8946 38.7848 50.92 38.9215 50.9724 39.0486C51.0249 39.1757 51.1031 39.2905 51.2022 39.3858C51.298 39.4843 51.4129 39.5622 51.5399 39.6146C51.6669 39.6669 51.8033 39.6927 51.9407 39.6903H56.1125C56.4003 39.7025 56.6816 39.6023 56.8968 39.4108C56.9996 39.313 57.08 39.1942 57.1326 39.0624C57.1852 38.9306 57.2086 38.7891 57.2014 38.6474V28.4597H63.601C67.1138 28.4597 69.8714 27.6545 71.8739 26.0441C73.8764 24.4338 74.8776 22.06 74.8776 18.9228C74.8776 15.7633 73.8764 13.3491 71.8739 11.6804ZM67.2389 22.3854C66.3503 23.1864 65.0695 23.5827 63.3841 23.5827H57.1263V14.0917H63.3841C65.1279 14.0917 66.4268 14.5089 67.2806 15.3433C68.115 16.1777 68.5656 17.3583 68.5656 18.8685C68.5656 20.3787 68.1234 21.5886 67.2389 22.3854ZM100.426 27.1956C102.152 26.6431 103.655 25.5524 104.715 24.0834C105.759 22.5138 106.284 20.6563 106.217 18.7726C106.217 15.7132 105.209 13.3616 103.192 11.7179C101.176 10.0742 98.382 9.24679 94.8108 9.23566H83.5468C83.4052 9.22925 83.2639 9.25309 83.1322 9.30561C83.0006 9.35812 82.8816 9.4381 82.7833 9.54021C82.5911 9.75527 82.4895 10.0363 82.4996 10.3245V38.6474C82.4991 38.7849 82.5258 38.9211 82.5783 39.0481C82.6308 39.1752 82.708 39.2906 82.8054 39.3876C82.9028 39.4846 83.0184 39.5613 83.1457 39.6133C83.273 39.6653 83.4093 39.6915 83.5468 39.6903H87.5518C87.6963 39.6956 87.8405 39.6713 87.9753 39.6189C88.1102 39.5665 88.2329 39.4872 88.3361 39.3858C88.4346 39.2901 88.5125 39.1751 88.5648 39.0481C88.6172 38.9211 88.643 38.7847 88.6406 38.6474V28.2177H94.6064L100.176 38.5389C100.36 38.8542 100.595 39.1362 100.873 39.3733C101.186 39.6058 101.572 39.721 101.961 39.6987H105.966C106.203 39.6984 106.431 39.6056 106.601 39.44C106.692 39.3576 106.765 39.2564 106.814 39.1434C106.863 39.0304 106.887 38.9082 106.884 38.7851C106.877 38.6183 106.832 38.4554 106.751 38.3095L100.426 27.1956ZM98.5989 22.0809C97.7256 22.8485 96.4184 23.2337 94.6773 23.2365H88.6281V14.0917H94.6773C96.4212 14.0917 97.7284 14.4908 98.5989 15.2891C99.4667 16.0901 99.9047 17.2248 99.9047 18.7058C99.9047 20.1868 99.4667 21.3132 98.5989 22.0809ZM135.17 34.6257H120.568V26.7617H133.889C134.177 26.7718 134.458 26.6702 134.673 26.478C134.776 26.3802 134.856 26.2614 134.909 26.1296C134.961 25.9978 134.985 25.8563 134.978 25.7146V22.9736C134.983 22.8291 134.959 22.685 134.906 22.5501C134.854 22.4152 134.775 22.2925 134.673 22.1893C134.569 22.0887 134.447 22.0099 134.312 21.9576C134.177 21.9053 134.033 21.8805 133.889 21.8848H120.568V14.2669H134.848C135.135 14.2778 135.415 14.1759 135.628 13.9833C135.731 13.8855 135.812 13.7666 135.864 13.6348C135.917 13.5031 135.94 13.3615 135.933 13.2198V10.2995C135.939 10.1551 135.916 10.011 135.864 9.87624C135.812 9.74148 135.732 9.61902 135.63 9.51665C135.528 9.41427 135.406 9.33421 135.271 9.28153C135.137 9.22885 134.993 9.2047 134.848 9.21063H115.658C115.517 9.20481 115.376 9.22895 115.245 9.28145C115.115 9.33394 114.996 9.41361 114.898 9.51518C114.705 9.72932 114.603 10.011 114.615 10.2995V38.6474C114.612 38.7848 114.637 38.9215 114.689 39.0486C114.742 39.1757 114.82 39.2905 114.919 39.3858C115.015 39.4843 115.13 39.5622 115.257 39.6146C115.384 39.6669 115.52 39.6927 115.658 39.6903H135.17C135.457 39.7025 135.739 39.6023 135.954 39.4108C136.057 39.313 136.137 39.1942 136.19 39.0624C136.242 38.9306 136.266 38.7891 136.258 38.6474V35.6854C136.265 35.5443 136.242 35.4035 136.189 35.2724C136.137 35.1414 136.056 35.0232 135.954 34.9261C135.742 34.7271 135.46 34.6192 135.17 34.6257ZM171.782 9.19811H168.298C168.024 9.19966 167.756 9.27885 167.525 9.42652C167.294 9.57418 167.109 9.78428 166.993 10.0325L158.599 25.6311L150.188 10.045C150.072 9.7968 149.887 9.5867 149.656 9.43903C149.425 9.29137 149.157 9.21218 148.883 9.21063H145.357C145.216 9.20421 145.074 9.22806 144.943 9.28057C144.811 9.33309 144.692 9.41307 144.594 9.51518C144.403 9.73065 144.303 10.0117 144.314 10.2995V38.6474C144.314 38.7845 144.34 38.9204 144.393 39.0472C144.445 39.1739 144.522 39.2891 144.619 39.3861C144.716 39.4831 144.831 39.5599 144.958 39.6121C145.084 39.6643 145.22 39.6909 145.357 39.6903H149.112C149.253 39.6973 149.394 39.6736 149.525 39.6211C149.656 39.5685 149.774 39.4882 149.871 39.3858C150.059 39.1867 150.161 38.9213 150.155 38.6474V19.9282L156.204 31.4217C156.338 31.7052 156.549 31.9452 156.814 32.1141C157.078 32.2831 157.384 32.3742 157.698 32.3771H159.525C159.832 32.3803 160.134 32.291 160.39 32.1206C160.646 31.9502 160.844 31.7066 160.96 31.4217L167.001 19.9282V38.6474C167 38.7845 167.027 38.9204 167.079 39.0472C167.131 39.1739 167.208 39.2891 167.305 39.3861C167.402 39.4831 167.517 39.5599 167.644 39.6121C167.771 39.6643 167.907 39.6909 168.044 39.6903H171.799C172.086 39.7021 172.367 39.6019 172.583 39.4108C172.685 39.3125 172.765 39.1936 172.818 39.0619C172.87 38.9303 172.894 38.789 172.887 38.6474V10.3037C172.894 10.1589 172.87 10.0144 172.818 9.87938C172.765 9.74432 172.686 9.62166 172.583 9.51922C172.481 9.41678 172.358 9.33681 172.223 9.2844C172.088 9.23198 171.943 9.20828 171.799 9.2148L171.782 9.19811ZM187.493 9.19811H183.321C183.048 9.19249 182.783 9.29433 182.583 9.4818C182.48 9.5796 182.4 9.69846 182.347 9.83023C182.295 9.962 182.271 10.1036 182.278 10.2453V38.614C182.278 38.7511 182.304 38.887 182.357 39.0138C182.409 39.1406 182.486 39.2558 182.583 39.3527C182.68 39.4497 182.795 39.5265 182.922 39.5787C183.048 39.6309 183.184 39.6575 183.321 39.657H187.493C187.635 39.6634 187.776 39.6395 187.908 39.587C188.039 39.5345 188.158 39.4545 188.257 39.3524C188.443 39.1527 188.544 38.8873 188.536 38.614V10.2453C188.544 10.1057 188.523 9.96604 188.475 9.8348C188.427 9.70355 188.353 9.58345 188.257 9.4818C188.05 9.29626 187.779 9.20022 187.502 9.2148L187.493 9.19811ZM218.565 34.6257H203.939V26.7617H217.26C217.548 26.7718 217.829 26.6702 218.044 26.478C218.146 26.3797 218.226 26.2608 218.278 26.1291C218.331 25.9975 218.355 25.8562 218.348 25.7146V22.9736C218.355 22.8289 218.331 22.6844 218.279 22.5494C218.226 22.4143 218.146 22.2916 218.044 22.1892C217.942 22.0868 217.819 22.0068 217.684 21.9544C217.549 21.902 217.404 21.8783 217.26 21.8848H203.939V14.2669H218.219C218.506 14.2778 218.786 14.1759 218.999 13.9833C219.102 13.8855 219.182 13.7666 219.235 13.6348C219.288 13.5031 219.311 13.3615 219.304 13.2198V10.2995C219.31 10.1551 219.287 10.011 219.235 9.87624C219.182 9.74148 219.103 9.61902 219.001 9.51665C218.899 9.41427 218.777 9.33421 218.642 9.28153C218.507 9.22885 218.363 9.2047 218.219 9.21063H198.999C198.858 9.20481 198.718 9.22895 198.587 9.28145C198.456 9.33394 198.338 9.41361 198.24 9.51518C198.046 9.72932 197.944 10.011 197.956 10.2995V38.6474C197.956 38.7845 197.982 38.9204 198.035 39.0472C198.087 39.1739 198.164 39.2891 198.261 39.3861C198.357 39.4831 198.473 39.5599 198.599 39.6121C198.726 39.6643 198.862 39.6909 198.999 39.6903H218.565C218.853 39.7025 219.134 39.6023 219.35 39.4108C219.452 39.3125 219.532 39.1936 219.584 39.0619C219.637 38.9303 219.661 38.789 219.654 38.6474V35.6854C219.66 35.5445 219.636 35.4039 219.583 35.273C219.531 35.1422 219.451 35.0239 219.35 34.9261C219.138 34.7271 218.856 34.6192 218.565 34.6257ZM251.94 38.2844L245.641 27.1956C247.354 26.6368 248.845 25.5467 249.896 24.0834C250.952 22.5177 251.489 20.66 251.431 18.7726C251.431 15.7132 250.423 13.3616 248.407 11.7179C246.39 10.0742 243.597 9.24679 240.025 9.23566H228.761C228.62 9.22925 228.478 9.25309 228.347 9.30561C228.215 9.35812 228.096 9.4381 227.998 9.54021C227.806 9.75527 227.704 10.0363 227.714 10.3245V38.6474C227.714 38.7849 227.74 38.9211 227.793 39.0481C227.845 39.1752 227.923 39.2906 228.02 39.3876C228.117 39.4846 228.233 39.5613 228.36 39.6133C228.488 39.6653 228.624 39.6915 228.761 39.6903H232.766C232.911 39.6961 233.055 39.672 233.19 39.6196C233.325 39.5672 233.448 39.4876 233.551 39.3858C233.649 39.2901 233.727 39.1751 233.779 39.0481C233.832 38.9211 233.858 38.7847 233.855 38.6474V28.2177H239.821L245.395 38.5389C245.576 38.8549 245.81 39.1372 246.087 39.3733C246.401 39.6058 246.786 39.721 247.176 39.6987H251.185C251.421 39.6982 251.647 39.6053 251.815 39.44C251.907 39.3576 251.979 39.2564 252.028 39.1434C252.077 39.0304 252.101 38.9082 252.099 38.7851C252.089 38.6144 252.039 38.4485 251.953 38.3011L251.94 38.2844ZM243.814 22.0809C242.943 22.8485 241.636 23.2337 239.892 23.2365H233.843V14.0917H239.884C241.627 14.0917 242.935 14.4908 243.805 15.2891C244.673 16.0901 245.111 17.2248 245.111 18.7058C245.111 20.1868 244.681 21.3132 243.814 22.0809Z" fill="url(#paint1_linear_701_6)"/>
<path opacity="0.5" d="M41.6776 24.0581C41.5061 23.6825 41.2118 23.3765 40.8433 23.1903L17.147 9.50655C15.9455 8.81402 14.9609 9.3814 14.9609 10.7581V38.134C14.9609 39.5232 15.9455 40.0906 17.147 39.3855L40.8433 25.7018C41.2121 25.514 41.5063 25.2066 41.6776 24.8299C41.7274 24.7051 41.7529 24.572 41.7527 24.4377C41.7506 24.3077 41.7251 24.1791 41.6776 24.0581Z" fill="url(#paint2_linear_701_6)"/>
<g opacity="0.5">
<path opacity="0.5" d="M41.6776 24.0581C41.5061 23.6825 41.2118 23.3765 40.8432 23.1903L17.147 9.50655C15.9455 8.81402 14.9609 9.3814 14.9609 10.7581V32.5395L41.6609 24.8257C41.7107 24.7009 41.7362 24.5678 41.736 24.4335C41.7387 24.3059 41.719 24.1788 41.6776 24.0581Z" fill="url(#paint3_linear_701_6)"/>
</g>
<path opacity="0.5" d="M41.6776 24.0581C41.5061 23.6825 41.2118 23.3765 40.8433 23.1903L17.147 9.50655C15.9455 8.81402 14.9609 9.3814 14.9609 10.7581V24.4502H41.7485C41.7492 24.3162 41.7252 24.1833 41.6776 24.0581Z" fill="url(#paint4_linear_701_6)"/>
<path d="M14.964 16.3484L41.664 24.0581C41.4924 23.6825 41.1981 23.3765 40.8296 23.1903L17.1333 9.50655C15.9318 8.81402 14.9473 9.3814 14.9473 10.7581L14.964 16.3484Z" fill="url(#paint5_linear_701_6)"/>
<defs>
<linearGradient id="paint0_linear_701_6" x1="133.5" y1="48.8151" x2="133.5" y2="0.108467" gradientUnits="userSpaceOnUse">
<stop stop-color="#D49143"/>
<stop offset="0.13" stop-color="#E7AB5D"/>
<stop offset="0.26" stop-color="#F4BE6F"/>
<stop offset="0.39" stop-color="#FCC97A"/>
<stop offset="0.54" stop-color="#FFCD7E"/>
<stop offset="1" stop-color="#DE984D"/>
</linearGradient>
<linearGradient id="paint1_linear_701_6" x1="73110.3" y1="690.965" x2="73110.3" y2="2907.09" gradientUnits="userSpaceOnUse">
<stop stop-color="#D49143"/>
<stop offset="0.13" stop-color="#E7AB5D"/>
<stop offset="0.26" stop-color="#F4BE6F"/>
<stop offset="0.39" stop-color="#FCC97A"/>
<stop offset="0.54" stop-color="#FFCD7E"/>
<stop offset="1" stop-color="#DE984D"/>
</linearGradient>
<linearGradient id="paint2_linear_701_6" x1="-787.721" y1="-677.153" x2="2375.18" y2="2103.21" gradientUnits="userSpaceOnUse">
<stop stop-color="#D49143"/>
<stop offset="0.13" stop-color="#E7AB5D"/>
<stop offset="0.26" stop-color="#F4BE6F"/>
<stop offset="0.39" stop-color="#FCC97A"/>
<stop offset="0.54" stop-color="#FFCD7E"/>
<stop offset="1" stop-color="#DE984D"/>
</linearGradient>
<linearGradient id="paint3_linear_701_6" x1="854.368" y1="735.428" x2="1985.08" y2="2033.2" gradientUnits="userSpaceOnUse">
<stop stop-color="#D49143"/>
<stop offset="0.13" stop-color="#E7AB5D"/>
<stop offset="0.26" stop-color="#F4BE6F"/>
<stop offset="0.39" stop-color="#FCC97A"/>
<stop offset="0.54" stop-color="#FFCD7E"/>
<stop offset="1" stop-color="#DE984D"/>
</linearGradient>
<linearGradient id="paint4_linear_701_6" x1="984.673" y1="409.394" x2="1620.78" y2="1527.55" gradientUnits="userSpaceOnUse">
<stop stop-color="#D49143"/>
<stop offset="0.13" stop-color="#E7AB5D"/>
<stop offset="0.26" stop-color="#F4BE6F"/>
<stop offset="0.39" stop-color="#FCC97A"/>
<stop offset="0.54" stop-color="#FFCD7E"/>
<stop offset="1" stop-color="#DE984D"/>
</linearGradient>
<linearGradient id="paint5_linear_701_6" x1="1111.4" y1="326.791" x2="1716.71" y2="1416.02" gradientUnits="userSpaceOnUse">
<stop stop-color="#D49143"/>
<stop offset="0.13" stop-color="#E7AB5D"/>
<stop offset="0.26" stop-color="#F4BE6F"/>
<stop offset="0.39" stop-color="#FCC97A"/>
<stop offset="0.54" stop-color="#FFCD7E"/>
<stop offset="1" stop-color="#DE984D"/>
</linearGradient>
</defs>
</svg>
