<svg width="213" height="41" viewBox="0 0 213 41" fill="none" xmlns="http://www.w3.org/2000/svg">
<path d="M28 27.1627V14.8377C27.999 14.6596 27.9512 14.485 27.8612 14.3314C27.7712 14.1778 27.6423 14.0506 27.4875 13.9627L16.4875 7.77516C16.3393 7.68958 16.1711 7.64453 16 7.64453C15.8289 7.64453 15.6607 7.68958 15.5125 7.77516L4.5125 13.9627C4.35769 14.0506 4.22879 14.1778 4.13882 14.3314C4.04884 14.485 4.00096 14.6596 4 14.8377V27.1627C4.00096 27.3407 4.04884 27.5153 4.13882 27.6689C4.22879 27.8226 4.35769 27.9497 4.5125 28.0377L15.5125 34.2252C15.6607 34.3107 15.8289 34.3558 16 34.3558C16.1711 34.3558 16.3393 34.3107 16.4875 34.2252L27.4875 28.0377C27.6423 27.9497 27.7712 27.8226 27.8612 27.6689C27.9512 27.5153 27.999 27.3407 28 27.1627V27.1627Z" stroke="white" stroke-width="2" stroke-linecap="round" stroke-linejoin="round"/>
<path d="M27.8627 14.3242L16.1127 20.9992L4.1377 14.3242" stroke="white" stroke-width="2" stroke-linecap="round" stroke-linejoin="round"/>
<path d="M16.1125 21L16 34.35" stroke="white" stroke-width="2" stroke-linecap="round" stroke-linejoin="round"/>
<path d="M22.125 10.9375L16 14.3875L9.875 10.9375" stroke="white" stroke-width="2" stroke-linecap="round" stroke-linejoin="round"/>
<path d="M22 31.1258V24.2383L28 20.8633" stroke="white" stroke-width="2" stroke-linecap="round" stroke-linejoin="round"/>
<path d="M10 31.1258V24.2383L4 20.8633" stroke="white" stroke-width="2" stroke-linecap="round" stroke-linejoin="round"/>
<path d="M44.97 30C44.772 30 44.619 29.946 44.511 29.838C44.403 29.712 44.349 29.559 44.349 29.379V11.748C44.349 11.55 44.403 11.397 44.511 11.289C44.619 11.163 44.772 11.1 44.97 11.1H58.281C58.479 11.1 58.632 11.163 58.74 11.289C58.866 11.397 58.929 11.55 58.929 11.748V29.379C58.929 29.559 58.866 29.712 58.74 29.838C58.632 29.946 58.479 30 58.281 30H56.904C56.724 30 56.571 29.946 56.445 29.838C56.337 29.712 56.283 29.559 56.283 29.379V13.53H46.995V29.379C46.995 29.559 46.932 29.712 46.806 29.838C46.698 29.946 46.545 30 46.347 30H44.97ZM69.0234 30.27C67.6554 30.27 66.5124 30.009 65.5944 29.487C64.6764 28.965 63.9744 28.245 63.4884 27.327C63.0024 26.391 62.7324 25.329 62.6784 24.141C62.6604 23.835 62.6514 23.448 62.6514 22.98C62.6514 22.494 62.6604 22.107 62.6784 21.819C62.7324 20.613 63.0024 19.551 63.4884 18.633C63.9924 17.715 64.7034 16.995 65.6214 16.473C66.5394 15.951 67.6734 15.69 69.0234 15.69C70.3734 15.69 71.5074 15.951 72.4254 16.473C73.3434 16.995 74.0454 17.715 74.5314 18.633C75.0354 19.551 75.3144 20.613 75.3684 21.819C75.3864 22.107 75.3954 22.494 75.3954 22.98C75.3954 23.448 75.3864 23.835 75.3684 24.141C75.3144 25.329 75.0444 26.391 74.5584 27.327C74.0724 28.245 73.3704 28.965 72.4524 29.487C71.5344 30.009 70.3914 30.27 69.0234 30.27ZM69.0234 28.191C70.1394 28.191 71.0304 27.84 71.6964 27.138C72.3624 26.418 72.7224 25.374 72.7764 24.006C72.7944 23.736 72.8034 23.394 72.8034 22.98C72.8034 22.566 72.7944 22.224 72.7764 21.954C72.7224 20.586 72.3624 19.551 71.6964 18.849C71.0304 18.129 70.1394 17.769 69.0234 17.769C67.9074 17.769 67.0074 18.129 66.3234 18.849C65.6574 19.551 65.3064 20.586 65.2704 21.954C65.2524 22.224 65.2434 22.566 65.2434 22.98C65.2434 23.394 65.2524 23.736 65.2704 24.006C65.3064 25.374 65.6574 26.418 66.3234 27.138C67.0074 27.84 67.9074 28.191 69.0234 28.191ZM79.3973 30C79.2173 30 79.0643 29.946 78.9383 29.838C78.8303 29.712 78.7763 29.559 78.7763 29.379V16.581C78.7763 16.401 78.8303 16.257 78.9383 16.149C79.0643 16.023 79.2173 15.96 79.3973 15.96H90.1163C90.2963 15.96 90.4403 16.023 90.5483 16.149C90.6743 16.257 90.7373 16.401 90.7373 16.581V29.379C90.7373 29.559 90.6743 29.712 90.5483 29.838C90.4403 29.946 90.2963 30 90.1163 30H88.8203C88.6403 30 88.4963 29.946 88.3883 29.838C88.2803 29.712 88.2263 29.559 88.2263 29.379V18.12H81.3143V29.379C81.3143 29.559 81.2513 29.712 81.1253 29.838C81.0173 29.946 80.8733 30 80.6933 30H79.3973ZM95.4028 35.13C95.2228 35.13 95.0698 35.067 94.9438 34.941C94.8358 34.833 94.7818 34.689 94.7818 34.509V16.581C94.7818 16.401 94.8358 16.257 94.9438 16.149C95.0698 16.023 95.2228 15.96 95.4028 15.96H96.6448C96.8248 15.96 96.9688 16.023 97.0768 16.149C97.2028 16.257 97.2658 16.401 97.2658 16.581V17.769C97.6978 17.175 98.2738 16.68 98.9938 16.284C99.7138 15.888 100.614 15.69 101.694 15.69C102.702 15.69 103.557 15.861 104.259 16.203C104.979 16.545 105.564 17.013 106.014 17.607C106.482 18.201 106.833 18.876 107.067 19.632C107.301 20.388 107.436 21.198 107.472 22.062C107.49 22.35 107.499 22.656 107.499 22.98C107.499 23.304 107.49 23.61 107.472 23.898C107.436 24.744 107.301 25.554 107.067 26.328C106.833 27.084 106.482 27.759 106.014 28.353C105.564 28.929 104.979 29.397 104.259 29.757C103.557 30.099 102.702 30.27 101.694 30.27C100.65 30.27 99.7678 30.081 99.0478 29.703C98.3458 29.307 97.7698 28.821 97.3198 28.245V34.509C97.3198 34.689 97.2658 34.833 97.1578 34.941C97.0498 35.067 96.9058 35.13 96.7258 35.13H95.4028ZM101.127 28.083C102.063 28.083 102.792 27.885 103.314 27.489C103.854 27.075 104.241 26.544 104.475 25.896C104.709 25.23 104.844 24.519 104.88 23.763C104.898 23.241 104.898 22.719 104.88 22.197C104.844 21.441 104.709 20.739 104.475 20.091C104.241 19.425 103.854 18.894 103.314 18.498C102.792 18.084 102.063 17.877 101.127 17.877C100.245 17.877 99.5248 18.084 98.9668 18.498C98.4268 18.912 98.0218 19.443 97.7518 20.091C97.4998 20.721 97.3558 21.369 97.3198 22.035C97.3018 22.323 97.2928 22.665 97.2928 23.061C97.2928 23.457 97.3018 23.808 97.3198 24.114C97.3378 24.744 97.4818 25.365 97.7518 25.977C98.0398 26.589 98.4628 27.093 99.0208 27.489C99.5788 27.885 100.281 28.083 101.127 28.083ZM116.59 30.27C115.222 30.27 114.079 30.009 113.161 29.487C112.243 28.965 111.541 28.245 111.055 27.327C110.569 26.391 110.299 25.329 110.245 24.141C110.227 23.835 110.218 23.448 110.218 22.98C110.218 22.494 110.227 22.107 110.245 21.819C110.299 20.613 110.569 19.551 111.055 18.633C111.559 17.715 112.27 16.995 113.188 16.473C114.106 15.951 115.24 15.69 116.59 15.69C117.94 15.69 119.074 15.951 119.992 16.473C120.91 16.995 121.612 17.715 122.098 18.633C122.602 19.551 122.881 20.613 122.935 21.819C122.953 22.107 122.962 22.494 122.962 22.98C122.962 23.448 122.953 23.835 122.935 24.141C122.881 25.329 122.611 26.391 122.125 27.327C121.639 28.245 120.937 28.965 120.019 29.487C119.101 30.009 117.958 30.27 116.59 30.27ZM116.59 28.191C117.706 28.191 118.597 27.84 119.263 27.138C119.929 26.418 120.289 25.374 120.343 24.006C120.361 23.736 120.37 23.394 120.37 22.98C120.37 22.566 120.361 22.224 120.343 21.954C120.289 20.586 119.929 19.551 119.263 18.849C118.597 18.129 117.706 17.769 116.59 17.769C115.474 17.769 114.574 18.129 113.89 18.849C113.224 19.551 112.873 20.586 112.837 21.954C112.819 22.224 112.81 22.566 112.81 22.98C112.81 23.394 112.819 23.736 112.837 24.006C112.873 25.374 113.224 26.418 113.89 27.138C114.574 27.84 115.474 28.191 116.59 28.191ZM132.283 30.27C130.897 30.27 129.736 30.009 128.8 29.487C127.882 28.947 127.18 28.191 126.694 27.219C126.226 26.229 125.974 25.086 125.938 23.79C125.92 23.25 125.911 22.71 125.911 22.17C125.911 21.63 125.92 21.09 125.938 20.55C125.938 18.912 126.073 17.553 126.343 16.473C126.613 15.375 127.018 14.484 127.558 13.8C128.116 13.098 128.818 12.531 129.664 12.099C130.51 11.649 131.509 11.262 132.661 10.938C133.813 10.596 135.127 10.236 136.603 9.858C136.765 9.822 136.918 9.849 137.062 9.939C137.224 10.029 137.314 10.155 137.332 10.317L137.548 11.424C137.584 11.586 137.557 11.73 137.467 11.856C137.395 11.982 137.278 12.063 137.116 12.099C135.766 12.441 134.587 12.738 133.579 12.99C132.571 13.242 131.725 13.539 131.041 13.881C130.357 14.205 129.808 14.628 129.394 15.15C128.998 15.672 128.719 16.365 128.557 17.229C128.395 18.093 128.341 19.2 128.395 20.55L127.828 20.307C127.9 19.623 128.17 19.011 128.638 18.471C129.124 17.931 129.727 17.49 130.447 17.148C131.167 16.806 131.932 16.635 132.742 16.635C133.984 16.635 135.028 16.896 135.874 17.418C136.738 17.94 137.395 18.651 137.845 19.551C138.313 20.451 138.574 21.486 138.628 22.656C138.664 23.268 138.664 23.799 138.628 24.249C138.574 25.419 138.304 26.463 137.818 27.381C137.332 28.281 136.63 28.992 135.712 29.514C134.794 30.018 133.651 30.27 132.283 30.27ZM132.283 28.272C133.417 28.272 134.317 27.921 134.983 27.219C135.649 26.499 136 25.473 136.036 24.141C136.054 23.961 136.063 23.754 136.063 23.52C136.063 23.286 136.054 23.043 136.036 22.791C136 21.423 135.649 20.388 134.983 19.686C134.335 18.984 133.516 18.633 132.526 18.633C131.392 18.633 130.456 18.984 129.718 19.686C128.98 20.388 128.584 21.423 128.53 22.791C128.512 23.043 128.503 23.286 128.503 23.52C128.503 23.754 128.512 23.961 128.53 24.141C128.584 25.473 128.944 26.499 129.61 27.219C130.276 27.921 131.167 28.272 132.283 28.272ZM147.782 30.27C146.414 30.27 145.271 30.009 144.353 29.487C143.435 28.965 142.733 28.245 142.247 27.327C141.761 26.391 141.491 25.329 141.437 24.141C141.419 23.835 141.41 23.448 141.41 22.98C141.41 22.494 141.419 22.107 141.437 21.819C141.491 20.613 141.761 19.551 142.247 18.633C142.751 17.715 143.462 16.995 144.38 16.473C145.298 15.951 146.432 15.69 147.782 15.69C149.132 15.69 150.266 15.951 151.184 16.473C152.102 16.995 152.804 17.715 153.29 18.633C153.794 19.551 154.073 20.613 154.127 21.819C154.145 22.107 154.154 22.494 154.154 22.98C154.154 23.448 154.145 23.835 154.127 24.141C154.073 25.329 153.803 26.391 153.317 27.327C152.831 28.245 152.129 28.965 151.211 29.487C150.293 30.009 149.15 30.27 147.782 30.27ZM147.782 28.191C148.898 28.191 149.789 27.84 150.455 27.138C151.121 26.418 151.481 25.374 151.535 24.006C151.553 23.736 151.562 23.394 151.562 22.98C151.562 22.566 151.553 22.224 151.535 21.954C151.481 20.586 151.121 19.551 150.455 18.849C149.789 18.129 148.898 17.769 147.782 17.769C146.666 17.769 145.766 18.129 145.082 18.849C144.416 19.551 144.065 20.586 144.029 21.954C144.011 22.224 144.002 22.566 144.002 22.98C144.002 23.394 144.011 23.736 144.029 24.006C144.065 25.374 144.416 26.418 145.082 27.138C145.766 27.84 146.666 28.191 147.782 28.191ZM158.156 30C157.976 30 157.823 29.946 157.697 29.838C157.589 29.712 157.535 29.559 157.535 29.379V16.581C157.535 16.401 157.589 16.257 157.697 16.149C157.823 16.023 157.976 15.96 158.156 15.96H163.772C165.464 15.96 166.733 16.302 167.579 16.986C168.443 17.67 168.875 18.588 168.875 19.74C168.875 20.55 168.722 21.162 168.416 21.576C168.11 21.99 167.678 22.341 167.12 22.629C167.804 22.917 168.317 23.385 168.659 24.033C169.019 24.663 169.199 25.32 169.199 26.004C169.199 27.3 168.74 28.29 167.822 28.974C166.922 29.658 165.644 30 163.988 30H158.156ZM160.019 28.029H163.772C164.636 28.029 165.329 27.867 165.851 27.543C166.391 27.201 166.661 26.688 166.661 26.004C166.661 25.284 166.418 24.762 165.932 24.438C165.446 24.096 164.726 23.925 163.772 23.925H160.019V28.029ZM160.019 21.927H163.61C164.474 21.927 165.158 21.738 165.662 21.36C166.184 20.982 166.445 20.451 166.445 19.767C166.445 19.065 166.184 18.588 165.662 18.336C165.158 18.066 164.474 17.931 163.61 17.931H160.019V21.927ZM176.585 30.27C175.685 30.27 174.866 30.09 174.128 29.73C173.39 29.37 172.796 28.884 172.346 28.272C171.896 27.66 171.671 26.967 171.671 26.193C171.671 24.951 172.175 23.961 173.183 23.223C174.191 22.485 175.505 21.999 177.125 21.765L181.148 21.198V20.415C181.148 19.551 180.896 18.876 180.392 18.39C179.906 17.904 179.105 17.661 177.989 17.661C177.197 17.661 176.549 17.823 176.045 18.147C175.541 18.471 175.19 18.885 174.992 19.389C174.884 19.659 174.695 19.794 174.425 19.794H173.21C173.012 19.794 172.859 19.74 172.751 19.632C172.661 19.506 172.616 19.362 172.616 19.2C172.616 18.93 172.715 18.597 172.913 18.201C173.129 17.805 173.453 17.418 173.885 17.04C174.317 16.662 174.866 16.347 175.532 16.095C176.216 15.825 177.044 15.69 178.016 15.69C179.096 15.69 180.005 15.834 180.743 16.122C181.481 16.392 182.057 16.761 182.471 17.229C182.903 17.697 183.209 18.228 183.389 18.822C183.587 19.416 183.686 20.019 183.686 20.631V29.379C183.686 29.559 183.623 29.712 183.497 29.838C183.389 29.946 183.245 30 183.065 30H181.823C181.625 30 181.472 29.946 181.364 29.838C181.256 29.712 181.202 29.559 181.202 29.379V28.218C180.968 28.542 180.653 28.866 180.257 29.19C179.861 29.496 179.366 29.757 178.772 29.973C178.178 30.171 177.449 30.27 176.585 30.27ZM177.152 28.245C177.89 28.245 178.565 28.092 179.177 27.786C179.789 27.462 180.266 26.967 180.608 26.301C180.968 25.635 181.148 24.798 181.148 23.79V23.034L178.016 23.493C176.738 23.673 175.775 23.979 175.127 24.411C174.479 24.825 174.155 25.356 174.155 26.004C174.155 26.508 174.299 26.931 174.587 27.273C174.893 27.597 175.271 27.84 175.721 28.002C176.189 28.164 176.666 28.245 177.152 28.245ZM191.86 30C191.68 30 191.527 29.946 191.401 29.838C191.293 29.712 191.239 29.559 191.239 29.379V18.12H186.541C186.361 18.12 186.208 18.066 186.082 17.958C185.974 17.832 185.92 17.679 185.92 17.499V16.581C185.92 16.401 185.974 16.257 186.082 16.149C186.208 16.023 186.361 15.96 186.541 15.96H198.421C198.601 15.96 198.745 16.023 198.853 16.149C198.979 16.257 199.042 16.401 199.042 16.581V17.499C199.042 17.679 198.979 17.832 198.853 17.958C198.745 18.066 198.601 18.12 198.421 18.12H193.723V29.379C193.723 29.559 193.669 29.712 193.561 29.838C193.453 29.946 193.309 30 193.129 30H191.86ZM202.005 30C201.825 30 201.672 29.946 201.546 29.838C201.438 29.712 201.384 29.559 201.384 29.379V16.581C201.384 16.401 201.438 16.257 201.546 16.149C201.672 16.023 201.825 15.96 202.005 15.96H203.301C203.481 15.96 203.625 16.023 203.733 16.149C203.859 16.257 203.922 16.401 203.922 16.581V20.55H206.946C208.782 20.55 210.123 20.982 210.969 21.846C211.815 22.71 212.238 23.88 212.238 25.356C212.238 26.94 211.77 28.11 210.834 28.866C209.898 29.622 208.494 30 206.622 30H202.005ZM203.895 27.975H206.73C207.81 27.975 208.602 27.786 209.106 27.408C209.61 27.012 209.862 26.328 209.862 25.356C209.862 24.42 209.619 23.727 209.133 23.277C208.647 22.809 207.846 22.575 206.73 22.575H203.895V27.975Z" fill="white"/>
</svg>
