<svg width="286" height="36" viewBox="0 0 286 36" fill="none" xmlns="http://www.w3.org/2000/svg">
<g clip-path="url(#clip0_701_652)">
<path d="M161.364 35.0008H143.553V0.84375H159.196C166.284 0.84375 170.117 5.2709 170.117 10.5193C170.117 12.865 168.937 15.2863 167.126 17.0987C169.802 18.5004 172.093 21.6957 172.093 25.0326C172.093 30.8662 167.559 35.0008 161.364 35.0008ZM151.962 28.1335H160.207C162.258 28.1335 163.584 26.609 163.584 24.773V24.7022C163.584 22.8379 162.234 21.3417 160.207 21.3417H151.962V28.1335ZM151.962 14.465H158.11C160.301 14.465 161.628 12.9405 161.628 11.1045C161.628 9.24023 160.4 7.74406 158.11 7.74406H151.962C151.962 7.73934 151.962 14.465 151.962 14.465Z" fill="#2DBE64"/>
<path d="M66.7063 35.0008L54.4588 17.5376L66.3206 0.84375H56.4389L46.9899 14.5358V0.84375H38.3828V35.0008H46.9899V20.9972L56.4624 35.0008H66.7063Z" fill="#2DBE64"/>
<path d="M221.341 0.84375V26.0993C221.341 27.2367 220.833 28.1052 219.775 28.1052C218.279 28.1052 218.208 26.3872 218.208 25.2497H210.133C210.133 30.7152 213.265 35.8456 220.015 35.8456C225.898 35.8456 229.92 31.055 229.92 25.1553V8.53698H241.56V35.0007H250.168V0.84375H221.341Z" fill="#2DBE64"/>
<path d="M105.371 0.84375L93.4623 26.0473C91.2705 30.8379 86.713 35.8456 78.976 35.8456C72.3961 35.8456 66.2018 31.8291 65.0918 23.0031H73.4308C74.0563 26.5335 76.5632 28.1052 79.3617 28.1052C81.7463 28.1052 83.3642 26.6798 83.8204 25.8538L69.6211 0.84375H79.5263L88.5426 17.363L95.9692 0.84375H105.371Z" fill="#2DBE64"/>
<path d="M23.0716 35.0008H0.175781V0.84375H20.9316C28.0195 0.84375 31.8527 5.2709 31.8527 10.5193C31.8527 12.865 30.6722 15.2863 28.8614 17.0987C31.5376 18.5004 33.8281 21.6957 33.8281 25.0326C33.8234 30.8662 29.2706 35.0008 23.0716 35.0008ZM8.58533 28.1335H21.9381C23.9887 28.1335 25.3151 26.609 25.3151 24.773V24.7022C25.3151 22.8379 23.9652 21.3417 21.9381 21.3417H8.58533V28.1335ZM8.58533 14.465H19.8404C22.0322 14.465 23.3585 12.9405 23.3585 11.1045C23.3585 9.24023 22.1309 7.74406 19.8404 7.74406H8.58533V14.465Z" fill="#2DBE64"/>
<path d="M130.052 22.1829C128.726 25.3027 125.881 27.5068 121.906 27.5068C116.314 27.5068 112.937 23.1269 112.937 17.9257C112.937 12.7245 116.314 8.34456 121.906 8.34456C125.885 8.34456 128.726 10.5723 130.052 13.7157H139.309C137.573 5.90444 131.04 0 121.906 0C111.178 0 104.043 8.12745 104.043 17.9257V17.9493C104.043 27.7711 111.178 35.875 121.906 35.875C131.04 35.875 137.573 29.9989 139.309 22.1829H130.052Z" fill="#2DBE64"/>
<path d="M200.006 0.84375L185.661 20.5866V0.84375H177.059V35.0008H184.89L199.258 15.2863V35.0008H207.865V0.84375H200.006Z" fill="#2DBE64"/>
<path d="M259.907 0.84375V23.9187C259.907 26.0473 258.703 27.3311 256.507 27.3311H253.977V34.9772H258.534C264.536 34.9772 268.515 31.1777 268.515 24.2349V8.51338H277.216V34.9772H285.823V0.84375H259.907Z" fill="#2DBE64"/>
</g>
<defs>
<clipPath id="clip0_701_652">
<rect width="286" height="35.875" fill="white"/>
</clipPath>
</defs>
</svg>
