<svg width="247" height="76" viewBox="0 0 247 76" fill="none" xmlns="http://www.w3.org/2000/svg">
<path d="M60.5385 63.9787L53.4016 52.1162L46.4124 63.9787H38.0442L48.7949 46.1114L37.8386 29.5234H46.5798L53.5986 40.5985L60.2927 29.5234H68.66L57.881 46.6527L68.9555 63.9787H60.5385Z" fill="white"/>
<path d="M96.1544 52.2641C96.1544 59.844 90.445 64.5692 82.963 64.5692C76.3673 64.5692 70.8141 60.927 70.2728 53.0022H77.4098C77.902 56.4477 80.6584 57.9244 83.6612 57.9244C87.4019 57.9244 89.0175 55.4141 89.0175 52.1654C89.0175 48.7691 86.5073 46.6527 83.0123 46.6527C80.1083 46.6527 78.1887 48.0309 77.3029 49.5075H70.4806L72.8391 29.5234H95.2775L94.5303 36.2177H78.4795L77.8423 42.831C77.8423 42.831 79.5288 40.8446 84.6367 40.8446C90.7896 40.8446 96.1544 44.9792 96.1544 52.2641Z" fill="white"/>
<path d="M71.1178 25.2324C67.3165 10.4122 55.2526 0 30.2216 0H0L4.10255 27.7403C7.18872 52.7718 16.7623 60.8248 33.704 63.7897C33.7838 63.802 34.3183 63.8782 34.3263 63.2501C34.3289 63.0242 34.1851 62.8292 33.9894 62.7464C22.5379 57.9243 21.2309 42.1136 18.7854 26.2461L16.892 13.602H34.1447C50.0512 13.602 62.3301 13.3508 70.1069 25.6279C70.2233 25.8015 70.4026 25.9288 70.6157 25.9288C70.9167 25.9288 71.139 25.6845 71.139 25.3835C71.139 25.3311 71.1315 25.2806 71.1178 25.2324Z" fill="#55B435"/>
<path d="M102.141 46.7244C102.141 36.0208 109.912 28.2988 120.713 28.2988C127.946 28.2988 134.495 32.502 136.401 38.2691L132.345 39.6378C130.878 35.3366 126.04 32.2087 120.713 32.2087C112.453 32.2087 106.588 38.2202 106.588 46.7244C106.588 55.1308 112.502 61.2888 120.713 61.2888C128.142 61.2888 134.006 55.9615 134.202 49.0214L117.096 48.9725V45.0137H138.698C139.431 56.7436 131.905 65.1989 120.713 65.1989C109.912 65.1989 102.141 57.4278 102.141 46.7244Z" fill="white"/>
<path d="M144.045 39.2955H148.004V42.6188H148.444C149.568 40.3707 152.305 38.8066 155.042 38.8066C156.166 38.8066 157.339 39.0511 158.072 39.442V43.2052C156.801 42.6676 155.335 42.4721 154.406 42.4721C150.692 42.4721 148.102 45.7955 148.102 50.683V63.9767H144.045V39.2955Z" fill="white"/>
<path d="M182.79 51.6121C182.79 46.0402 178.928 41.9838 173.601 41.9838C168.225 41.9838 164.413 46.0402 164.413 51.6121C164.413 57.2324 168.225 61.289 173.601 61.289C178.928 61.289 182.79 57.2324 182.79 51.6121ZM160.356 51.6121C160.356 43.8412 165.83 38.3184 173.601 38.3184C181.323 38.3184 186.846 43.8412 186.846 51.6121C186.846 59.4318 181.323 64.9546 173.601 64.9546C165.83 64.9546 160.356 59.4318 160.356 51.6121Z" fill="white"/>
<path d="M214.125 63.978H210.069V60.6059H209.581C207.869 63.2938 205.084 64.8578 201.858 64.8578C195.553 64.8578 191.595 60.3126 191.595 54.0076V39.2969H195.65V54.0076C195.65 58.211 198.095 61.1922 202.346 61.1922C206.501 61.1922 210.069 58.0154 210.069 53.6657V39.2969H214.125V63.978Z" fill="white"/>
<path d="M224.547 51.6121C224.547 57.0369 228.408 61.289 233.735 61.289C239.013 61.289 242.875 57.0369 242.875 51.6121C242.875 46.0892 239.013 41.9838 233.735 41.9838C228.408 41.9838 224.547 46.187 224.547 51.6121ZM246.932 51.6121C246.932 59.3342 241.408 64.9546 234.224 64.9546C230.265 64.9546 226.942 63.2439 225.135 60.3116H224.693V75.218H220.638V39.2959H224.693V43.0591H225.135C226.942 40.0778 230.119 38.3184 234.176 38.3184C241.361 38.3184 246.932 43.8899 246.932 51.6121Z" fill="white"/>
</svg>
