<svg width="33" height="32" viewBox="0 0 33 32" fill="none" xmlns="http://www.w3.org/2000/svg">
<path d="M28.5 22.1627V9.83766C28.499 9.65963 28.4512 9.48499 28.3612 9.33137C28.2712 9.17775 28.1423 9.05057 27.9875 8.96266L16.9875 2.77516C16.8393 2.68958 16.6711 2.64453 16.5 2.64453C16.3289 2.64453 16.1607 2.68958 16.0125 2.77516L5.0125 8.96266C4.85769 9.05057 4.72879 9.17775 4.63882 9.33137C4.54884 9.48499 4.50096 9.65963 4.5 9.83766V22.1627C4.50096 22.3407 4.54884 22.5153 4.63882 22.6689C4.72879 22.8226 4.85769 22.9497 5.0125 23.0377L16.0125 29.2252C16.1607 29.3107 16.3289 29.3558 16.5 29.3558C16.6711 29.3558 16.8393 29.3107 16.9875 29.2252L27.9875 23.0377C28.1423 22.9497 28.2712 22.8226 28.3612 22.6689C28.4512 22.5153 28.499 22.3407 28.5 22.1627V22.1627Z" stroke="white" stroke-width="2" stroke-linecap="round" stroke-linejoin="round"/>
<path d="M28.3627 9.3252L16.6127 16.0002L4.6377 9.3252" stroke="white" stroke-width="2" stroke-linecap="round" stroke-linejoin="round"/>
<path d="M16.6125 16L16.5 29.35" stroke="white" stroke-width="2" stroke-linecap="round" stroke-linejoin="round"/>
<path d="M22.625 5.9375L16.5 9.3875L10.375 5.9375" stroke="white" stroke-width="2" stroke-linecap="round" stroke-linejoin="round"/>
<path d="M22.5 26.1248V19.2373L28.5 15.8623" stroke="white" stroke-width="2" stroke-linecap="round" stroke-linejoin="round"/>
<path d="M10.5 26.1248V19.2373L4.5 15.8623" stroke="white" stroke-width="2" stroke-linecap="round" stroke-linejoin="round"/>
</svg>
