<svg width="179" height="55" viewBox="0 0 179 55" fill="none" xmlns="http://www.w3.org/2000/svg">
<g clip-path="url(#clip0_701_748)">
<path fill-rule="evenodd" clip-rule="evenodd" d="M100.687 53.6279C101.545 54.4483 102.739 54.8585 104.267 54.8585C104.901 54.8585 105.535 54.7839 106.057 54.5974C106.654 54.411 107.176 54.1499 107.586 53.777L106.729 51.8006C106.132 52.2854 105.424 52.5091 104.566 52.5091C103.783 52.5091 103.186 52.2854 102.776 51.8378C102.366 51.3904 102.179 50.7564 102.179 49.936V41.6945H106.58V39.4197H102.179V36.0635H99.4196V39.4197H96.8464V41.6945H99.4196V50.0851C99.4196 51.6141 99.8298 52.8074 100.687 53.6279Z" fill="white"/>
<path fill-rule="evenodd" clip-rule="evenodd" d="M110.085 39.4207V54.6729V54.7102H112.844V47.1027C112.844 45.4246 113.292 44.1567 114.15 43.2617C115.007 42.3667 116.163 41.9192 117.655 41.9192H117.953C118.065 41.9192 118.177 41.9192 118.289 41.9565V39.2715C116.835 39.2715 115.604 39.5325 114.597 40.0919C113.778 40.5468 113.157 41.1744 112.732 41.9545V39.4207H110.085Z" fill="white"/>
<path fill-rule="evenodd" clip-rule="evenodd" d="M127.5 54.8592C125.859 54.8592 124.442 54.5236 123.174 53.8523C121.943 53.1811 120.974 52.2488 120.303 51.0928C119.631 49.9367 119.296 48.5942 119.296 47.0653C119.296 45.5363 119.631 44.1938 120.265 43.0378C120.936 41.8817 121.831 40.9494 122.988 40.3155C124.144 39.6442 125.486 39.3086 126.94 39.3086C128.432 39.3086 129.737 39.6442 130.856 40.2782C131.975 40.9494 132.87 41.8444 133.504 43.0378C134.175 44.1938 134.473 45.5736 134.473 47.1398C134.473 47.2517 134.473 47.4009 134.436 47.5501C134.436 47.6992 134.436 47.8484 134.399 47.9976H122.028C122.118 48.7048 122.333 49.3611 122.689 49.9367C123.174 50.7198 123.845 51.3538 124.666 51.764C125.523 52.2115 126.493 52.4353 127.574 52.4353C128.469 52.4353 129.29 52.2861 130.036 51.9878C130.781 51.6894 131.453 51.2046 132.012 50.608L133.541 52.398C132.833 53.2184 131.975 53.8151 130.931 54.2253C129.924 54.6355 128.768 54.8592 127.5 54.8592ZM129.514 42.2919C130.259 42.7021 130.856 43.3361 131.266 44.0819C131.574 44.6422 131.777 45.2867 131.843 45.9838H122.029C122.115 45.3031 122.315 44.6913 122.615 44.1192C123.025 43.3361 123.621 42.7021 124.367 42.2919C125.113 41.8444 125.971 41.6207 126.94 41.6207C127.947 41.6207 128.768 41.8444 129.514 42.2919Z" fill="white"/>
<path fill-rule="evenodd" clip-rule="evenodd" d="M146.407 45.3121C146.407 44.1561 146.071 43.2238 145.363 42.5898C144.691 41.9186 143.685 41.6202 142.305 41.6202C141.41 41.6202 140.515 41.7694 139.657 42.0677C138.799 42.3661 138.053 42.739 137.457 43.2611L136.301 41.1727C137.084 40.5388 138.016 40.054 139.135 39.7184C140.254 39.3827 141.41 39.1963 142.603 39.1963C144.691 39.1963 146.295 39.7184 147.451 40.7252C148.57 41.7321 149.166 43.2984 149.166 45.3867V54.5977H146.556V52.6985C146.18 53.2802 145.662 53.7735 144.99 54.1502C144.095 54.5977 142.939 54.8588 141.522 54.8588C140.403 54.8588 139.396 54.6723 138.538 54.2994C137.681 53.9265 137.047 53.4044 136.562 52.7332C136.114 52.0246 135.853 51.2788 135.853 50.3838C135.853 49.5634 136.04 48.8175 136.413 48.1463C136.823 47.475 137.457 46.953 138.352 46.5427C139.247 46.1325 140.477 45.9461 141.969 45.9461H146.407V45.3121ZM139.284 48.6311C139.769 48.1463 140.701 47.9225 142.081 47.9225H146.407V50.2123C146.034 51.1073 145.437 51.6517 144.654 52.0992C143.871 52.584 142.976 52.8077 141.932 52.8077C140.888 52.8077 140.067 52.584 139.471 52.1365C138.874 51.6517 138.576 51.055 138.576 50.3092C138.576 49.638 138.799 49.0786 139.284 48.6311Z" fill="white"/>
<path d="M172.511 39.2715C173.742 39.2715 174.823 39.4952 175.755 39.98C176.688 40.4648 177.434 41.1734 177.956 42.1802C178.478 43.1498 178.776 44.3804 178.776 45.9094V54.7102H176.017V46.245C176.017 44.7534 175.681 43.6346 174.972 42.8888C174.264 42.1429 173.294 41.77 172.064 41.77C171.131 41.77 170.348 41.9565 169.64 42.3294C168.931 42.7023 168.409 43.2617 168.036 44.0448C167.663 44.7907 167.477 45.7229 167.477 46.8417V54.7102H164.717V46.245C164.717 44.7534 164.382 43.6346 163.673 42.8888C163.002 42.1429 162.032 41.77 160.764 41.77C159.869 41.77 159.049 41.9565 158.378 42.3294C157.669 42.7023 157.147 43.2617 156.774 44.0448C156.401 44.7907 156.215 45.7229 156.215 46.8417V54.7102H153.455V39.4579H156.103V41.7141C156.558 41.0663 157.147 40.538 157.855 40.1292C158.862 39.5698 160.018 39.3088 161.324 39.3088C162.778 39.3088 164.046 39.6817 165.09 40.3902C165.729 40.8237 166.242 41.3967 166.621 42.1093C167.083 41.4214 167.708 40.8284 168.484 40.3529C169.64 39.6071 170.982 39.2715 172.511 39.2715Z" fill="white"/>
<path d="M7.79359 54.8965C6.26464 54.8965 4.77297 54.6728 3.39318 54.188C1.97609 53.7032 0.894635 53.1065 0.0742188 52.3607L1.15568 50.1232C1.9388 50.7944 2.90839 51.3538 4.10172 51.8013C5.29505 52.2488 6.52568 52.4726 7.83089 52.4726C8.98693 52.4726 9.95651 52.3234 10.6651 52.0624C11.4109 51.8013 11.933 51.4284 12.2686 50.9809C12.6042 50.4961 12.7907 49.974 12.7907 49.3774C12.7907 48.6688 12.5669 48.1467 12.0821 47.6992C11.6346 47.289 11.038 46.9534 10.3294 46.6924C9.62089 46.4313 8.83776 46.2076 7.98005 45.9838C7.12234 45.7974 6.22734 45.5736 5.36964 45.3126C4.51193 45.0515 3.69151 44.7159 2.98297 44.3057C2.27443 43.8955 1.67776 43.3734 1.26755 42.7021C0.820052 41.9936 0.596302 41.1359 0.596302 40.0544C0.596302 39.0103 0.857344 38.078 1.41672 37.2203C1.97609 36.3253 2.8338 35.654 3.95255 35.1319C5.10859 34.6099 6.56297 34.3115 8.31568 34.3115C9.47172 34.3115 10.6651 34.4607 11.7838 34.759C12.9398 35.0574 13.9467 35.5049 14.7671 36.1015L13.8348 38.4136C12.9771 37.8542 12.0448 37.4067 11.1126 37.183C10.143 36.9219 9.21068 36.7728 8.31568 36.7728C7.19693 36.7728 6.26464 36.9219 5.5188 37.2203C4.77297 37.5186 4.25089 37.8915 3.91526 38.3763C3.57964 38.8611 3.43047 39.3832 3.43047 39.9799C3.43047 40.6884 3.65422 41.2478 4.10172 41.6953C4.54922 42.1055 5.14589 42.4411 5.85443 42.7021C6.60026 42.9632 7.38339 43.1869 8.24109 43.4107C9.0988 43.5971 9.95651 43.8209 10.8515 44.0819C11.7465 44.343 12.5296 44.6413 13.2382 45.0515C13.984 45.4617 14.5434 45.9838 14.9909 46.6551C15.4384 47.3263 15.6621 48.184 15.6621 49.2655C15.6621 50.2724 15.4011 51.2419 14.8417 52.0996C14.2823 52.9574 13.4246 53.6659 12.2313 54.188C11.0007 54.6355 9.5463 54.8965 7.79359 54.8965Z" fill="white"/>
<path d="M25.0605 54.8592C23.5315 54.8592 22.1517 54.5236 20.9584 53.8523C19.7651 53.1811 18.8328 52.2488 18.1242 51.0928C17.4157 49.8994 17.0801 48.5569 17.0801 47.0653C17.0801 45.5363 17.4157 44.1938 18.1242 43.0378C18.8328 41.8817 19.7651 40.9494 20.9584 40.3155C22.1517 39.6442 23.4942 39.3086 25.0605 39.3086C26.5895 39.3086 27.932 39.6442 29.1253 40.3155C30.3186 40.9867 31.2882 41.8817 31.9595 43.0378C32.668 44.1938 33.0036 45.5363 33.0036 47.0653C33.0036 48.5942 32.668 49.9367 31.9595 51.0928C31.2882 52.2488 30.3559 53.1811 29.1253 53.8523C27.932 54.5236 26.5895 54.8592 25.0605 54.8592ZM25.0605 52.4353C26.0301 52.4353 26.9251 52.2115 27.6709 51.764C28.454 51.3165 29.088 50.6826 29.4982 49.8994C29.9457 49.079 30.1695 48.1094 30.1695 47.0653C30.1695 45.9838 29.9457 45.0142 29.4982 44.2311C29.0507 43.4107 28.454 42.814 27.6709 42.3665C26.8878 41.919 26.0301 41.6953 25.0605 41.6953C24.0909 41.6953 23.1959 41.919 22.4501 42.3665C21.667 42.814 21.0703 43.448 20.6228 44.2311C20.1753 45.0142 19.9142 45.9465 19.9142 47.0653C19.9142 48.1467 20.138 49.079 20.6228 49.8994C21.0703 50.7198 21.7042 51.3165 22.4501 51.764C23.2332 52.2115 24.0909 52.4353 25.0605 52.4353Z" fill="white"/>
<path d="M42.6241 54.8592C41.0578 54.8592 39.6781 54.5236 38.4474 53.8523C37.2541 53.1811 36.2845 52.2488 35.6133 51.0928C34.9047 49.9367 34.5691 48.5942 34.5691 47.0653C34.5691 45.5363 34.9047 44.1938 35.6133 43.0378C36.3218 41.8817 37.2541 40.9494 38.4474 40.3155C39.6781 39.6442 41.0578 39.3086 42.6241 39.3086C44.0039 39.3086 45.2345 39.5696 46.316 40.129C47.3974 40.6511 48.2551 41.4715 48.8518 42.553L46.7635 43.8955C46.2787 43.1496 45.6447 42.5903 44.9362 42.2546C44.2276 41.8817 43.4445 41.6953 42.6241 41.6953C41.6172 41.6953 40.7222 41.919 39.9391 42.3665C39.156 42.814 38.522 43.448 38.0745 44.2311C37.627 45.0142 37.366 45.9465 37.366 47.0653C37.366 48.1467 37.5897 49.1163 38.0745 49.8994C38.5593 50.6826 39.156 51.3165 39.9391 51.764C40.7222 52.2115 41.6172 52.4353 42.6241 52.4353C43.4445 52.4353 44.2276 52.2488 44.9362 51.9132C45.682 51.5403 46.2787 50.9809 46.7635 50.2351L48.8518 51.5776C48.2551 52.6217 47.3974 53.4421 46.316 54.0388C45.2345 54.5609 44.0039 54.8592 42.6241 54.8592Z" fill="white"/>
<path d="M51.351 54.673V39.4208H54.1106V54.673H51.351ZM52.7308 36.4747C52.2087 36.4747 51.7239 36.2883 51.3883 35.9526C51.0527 35.617 50.8662 35.1695 50.8662 34.6847C50.8662 34.1626 51.0527 33.7524 51.3883 33.3795C51.7612 33.0439 52.2087 32.8574 52.7308 32.8574C53.2529 32.8574 53.7004 33.0439 54.0733 33.3795C54.4462 33.7151 54.6327 34.1253 54.6327 34.6101C54.6327 35.1322 54.4462 35.5797 54.1106 35.9526C53.7377 36.2883 53.2902 36.4747 52.7308 36.4747Z" fill="white"/>
<path fill-rule="evenodd" clip-rule="evenodd" d="M67.8707 45.3121C67.8707 44.1561 67.5351 43.2238 66.8265 42.5898C66.1553 41.9186 65.1484 41.6202 63.7686 41.6202C62.8736 41.6202 61.9786 41.7694 61.1209 42.0677C60.2632 42.3661 59.5173 42.739 58.9207 43.2611L57.7646 41.1727C58.5478 40.5388 59.4801 40.054 60.5988 39.7184C61.7176 39.3827 62.8736 39.1963 64.0669 39.1963C66.1553 39.1963 67.7588 39.7184 68.9149 40.7252C70.0336 41.7321 70.6303 43.2984 70.6303 45.3867V54.5977H68.0198V52.6985C67.6438 53.2802 67.1264 53.7735 66.4536 54.1502C65.5586 54.5977 64.4026 54.8588 62.9855 54.8588C61.8667 54.8588 60.8598 54.6723 60.0021 54.2994C59.1444 53.9265 58.5105 53.4044 58.0257 52.7332C57.5782 52.0246 57.3171 51.2788 57.3171 50.3838C57.3171 49.5634 57.5036 48.8175 57.8765 48.1463C58.2867 47.475 58.9207 46.953 59.8157 46.5427C60.7107 46.1325 61.9413 45.9461 63.433 45.9461H67.8707V45.3121ZM60.748 48.6311C61.2328 48.1463 62.1651 47.9225 63.5448 47.9225H67.8707V50.2123C67.4978 51.1073 66.9011 51.6517 66.118 52.0992C65.3349 52.584 64.4398 52.8077 63.3957 52.8077C62.3515 52.8077 61.5311 52.584 60.9344 52.1365C60.3378 51.6517 60.0394 51.055 60.0394 50.3092C60.0394 49.638 60.2632 49.0786 60.748 48.6311Z" fill="white"/>
<path d="M99.4565 29.7989V33.1551C100.836 31.2533 110.346 18.7979 110.346 18.7979L99.4565 29.7989Z" fill="white"/>
<path d="M99.4565 27.6737L105.535 22.3037L100.724 25.5108C100.389 25.7345 99.9413 26.0702 99.4565 26.4431V27.6737Z" fill="white"/>
<path d="M114.112 19.954C114.224 19.8049 114.411 19.5811 114.485 19.3947L114.597 19.2455V19.0217C114.523 18.0895 114.224 17.1945 113.777 16.4113L113.478 15.852L112.956 16.1876C112.583 16.4486 112.211 16.6724 111.838 16.8961L111.204 16.3367L111.875 15.1807L112.211 14.6586L111.651 14.3976C110.793 14.0247 109.861 13.8009 108.929 13.7263H108.705L108.556 13.8382C108.369 13.9874 108.183 14.0992 107.997 14.2111C108.705 13.1297 109.488 12.1228 110.383 11.2278C111.129 10.482 111.912 9.77341 112.77 9.10216H112.882C112.956 9.13945 112.956 9.21404 112.882 9.21404C112.546 9.69883 112.173 10.1836 111.763 10.6311L111.092 11.377L112.136 11.4888C112.658 11.5261 113.18 11.6007 113.702 11.7126L114.038 11.7499L114.262 11.4888C115.268 10.1836 116.499 8.99029 117.543 7.68508C120.191 4.55258 123.51 2.01674 127.202 0.189453C125.3 3.76945 122.876 7.05112 120.004 9.99716C118.848 11.1905 117.618 12.3465 116.313 13.428L116.014 13.6517L116.089 13.9874C116.201 14.5467 116.313 14.9942 116.387 15.5163L116.536 16.5605L117.319 15.852C117.767 15.479 118.214 15.1061 118.699 14.6959H118.811C118.848 14.7332 118.848 14.8078 118.811 14.8078C118.214 15.6655 117.543 16.4859 116.797 17.269C116.163 18.3132 115.194 19.2455 114.112 19.954Z" fill="white"/>
<path d="M74.8821 53.2557V54.6728H77.6417V50.608L74.8821 53.2557Z" fill="white"/>
<path d="M91.7379 37.1457C92.6702 37.4068 93.5279 37.817 94.3483 38.3391L95.2806 36.027C94.7958 35.6914 94.311 35.4303 93.7144 35.2066L91.7379 37.1457Z" fill="white"/>
<path fill-rule="evenodd" clip-rule="evenodd" d="M82.0048 43.0378L84.205 41.0986C84.0185 40.763 83.944 40.3901 83.944 39.9799C83.944 39.3832 84.0931 38.8611 84.4287 38.3764C84.7644 37.8916 85.2865 37.5186 86.0323 37.2203C86.7781 36.922 87.7104 36.7728 88.8292 36.7728H89.1648L91.626 34.6099C90.6937 34.4234 89.7615 34.3116 88.8292 34.3116C87.0765 34.3116 85.6221 34.6099 84.466 35.132C83.3473 35.6541 82.4896 36.3253 81.9302 37.2203C81.3708 38.078 81.1098 39.0103 81.1098 40.0545C81.1098 41.1359 81.3335 41.9936 81.781 42.7022L82.0048 43.0378ZM74.8821 49.2655L77.6417 46.8416V33.3047H74.8821V49.2655Z" fill="white"/>
<path d="M84.0185 44.5668C84.6152 44.8651 85.2492 45.1261 85.9204 45.3126C86.8154 45.5736 87.6731 45.7974 88.5308 45.9839C89.3885 46.1703 90.1717 46.3941 90.8802 46.6924C91.626 46.9534 92.1854 47.2891 92.6329 47.6993C93.0804 48.1095 93.3415 48.6689 93.3415 49.3774C93.3415 49.9741 93.155 50.4961 92.8194 50.9809C92.4837 51.4284 91.9244 51.8014 91.2158 52.0624C90.47 52.3234 89.5377 52.4726 88.3817 52.4726C87.1137 52.4726 85.8458 52.2489 84.6525 51.8014C83.4592 51.3539 82.4896 50.7945 81.7065 50.1232L80.625 52.3607C81.4454 53.1066 82.5269 53.7405 83.944 54.188C85.361 54.6355 86.8154 54.8966 88.3444 54.8966C90.0971 54.8966 91.5887 54.6355 92.7075 54.1134C93.8635 53.5914 94.7585 52.8828 95.3179 52.0251C95.8773 51.1301 96.1383 50.1978 96.1383 49.1909C96.1383 48.1468 95.9146 47.2518 95.4671 46.5805C95.0196 45.9093 94.4229 45.3872 93.7144 44.977C93.0058 44.5668 92.2227 44.2311 91.3277 44.0074C90.47 43.7464 89.6123 43.5226 88.7173 43.3361C87.8596 43.1124 87.0392 42.8886 86.3306 42.6276C86.256 42.5903 86.1815 42.553 86.0696 42.553L84.0185 44.5668Z" fill="white"/>
</g>
<defs>
<clipPath id="clip0_701_748">
<rect width="179" height="54.8188" fill="white" transform="translate(0 0.115234)"/>
</clipPath>
</defs>
</svg>
