<svg width="27" height="27" viewBox="0 0 27 27" fill="none" xmlns="http://www.w3.org/2000/svg">
<path d="M10.253 5.46635C7.53303 8.51968 5.66636 12.9063 5.49303 13.3197L2.4797 12.0263C1.61303 11.653 1.3997 10.5197 2.06636 9.85301L6.0797 5.83968C6.70636 5.21301 7.61303 4.93301 8.49303 5.10635L10.253 5.46635ZM12.2397 19.013C12.6397 19.413 13.2264 19.5197 13.733 19.2797C15.2797 18.5597 18.5997 16.8663 20.7464 14.7197C26.8664 8.59968 26.9197 3.61301 26.5597 1.47968C26.5125 1.21763 26.3863 0.976284 26.198 0.788009C26.0098 0.599733 25.7684 0.473536 25.5064 0.426348C23.373 0.066348 18.3864 0.119681 12.2664 6.23968C10.1197 8.38635 8.4397 11.7063 7.70636 13.253C7.46636 13.7597 7.58636 14.3597 7.97303 14.7463L12.2397 19.013ZM21.533 16.7463C18.4797 19.4663 14.093 21.333 13.6797 21.5063L14.973 24.5197C15.3464 25.3863 16.4797 25.5997 17.1464 24.933L21.1597 20.9197C21.7864 20.293 22.0664 19.3863 21.893 18.5063L21.533 16.7463ZM9.9197 20.213C10.049 20.8588 10.0168 21.5264 9.82611 22.1568C9.63538 22.7871 9.29197 23.3606 8.82636 23.8263C7.7997 24.853 4.61303 25.613 2.54636 26.013C1.62636 26.1863 0.81303 25.373 0.986363 24.453C1.38636 22.3863 2.13303 19.1997 3.17303 18.173C3.63877 17.7074 4.21226 17.364 4.8426 17.1733C5.47294 16.9825 6.14062 16.9504 6.78636 17.0797C8.34636 17.373 9.62636 18.653 9.9197 20.213ZM15.333 8.99968C15.333 7.53301 16.533 6.33301 17.9997 6.33301C19.4664 6.33301 20.6664 7.53301 20.6664 8.99968C20.6664 10.4663 19.4664 11.6663 17.9997 11.6663C16.533 11.6663 15.333 10.4663 15.333 8.99968Z" fill="#E4E7FF"/>
</svg>
